<?xml version="1.0" encoding="utf-8" standalone="no"?>
<!DOCTYPE svg PUBLIC "-//W3C//DTD SVG 1.1//EN"
  "http://www.w3.org/Graphics/SVG/1.1/DTD/svg11.dtd">
<svg xmlns:xlink="http://www.w3.org/1999/xlink" width="996.48pt" height="150.310404pt" viewBox="0 0 996.48 150.310404" xmlns="http://www.w3.org/2000/svg" version="1.1">
 <metadata>
  <rdf:RDF xmlns:dc="http://purl.org/dc/elements/1.1/" xmlns:cc="http://creativecommons.org/ns#" xmlns:rdf="http://www.w3.org/1999/02/22-rdf-syntax-ns#">
   <cc:Work>
    <dc:type rdf:resource="http://purl.org/dc/dcmitype/StillImage"/>
    <dc:date>2026-01-06T11:22:10.700988</dc:date>
    <dc:format>image/svg+xml</dc:format>
    <dc:creator>
     <cc:Agent>
      <dc:title>Matplotlib v3.10.8, https://matplotlib.org/</dc:title>
     </cc:Agent>
    </dc:creator>
   </cc:Work>
  </rdf:RDF>
 </metadata>
 <defs>
  <style type="text/css">*{stroke-linejoin: round; stroke-linecap: butt}</style>
 </defs>
 <g id="figure_1">
  <g id="patch_1">
   <path d="M 0 150.310404 
L 996.48 150.310404 
L 996.48 0 
L 0 0 
z
" style="fill: #ffffff"/>
  </g>
  <g id="axes_1">
   <g id="patch_2">
    <path d="M 19.790769 67.565788 
L 42.454154 67.565788 
L 42.454154 52.456865 
L 19.790769 52.456865 
z
" clip-path="url(#p8e46ca4811)" style="fill: #e2e8f0; opacity: 0.4; stroke: #ffffff; stroke-width: 0.5; stroke-linejoin: miter"/>
   </g>
   <g id="patch_3">
    <path d="M 44.972308 67.565788 
L 67.635692 67.565788 
L 67.635692 52.456865 
L 44.972308 52.456865 
z
" clip-path="url(#p8e46ca4811)" style="fill: #3b82f6; stroke: #ffffff; stroke-width: 0.5; stroke-linejoin: miter"/>
   </g>
   <g id="patch_4">
    <path d="M 70.153846 67.565788 
L 92.817231 67.565788 
L 92.817231 52.456865 
L 70.153846 52.456865 
z
" clip-path="url(#p8e46ca4811)" style="fill: #3b82f6; stroke: #ffffff; stroke-width: 0.5; stroke-linejoin: miter"/>
   </g>
   <g id="patch_5">
    <path d="M 95.335385 67.565788 
L 117.998769 67.565788 
L 117.998769 52.456865 
L 95.335385 52.456865 
z
" clip-path="url(#p8e46ca4811)" style="fill: #e2e8f0; opacity: 0.4; stroke: #ffffff; stroke-width: 0.5; stroke-linejoin: miter"/>
   </g>
   <g id="patch_6">
    <path d="M 120.516923 67.565788 
L 143.180308 67.565788 
L 143.180308 52.456865 
L 120.516923 52.456865 
z
" clip-path="url(#p8e46ca4811)" style="fill: #e2e8f0; opacity: 0.4; stroke: #ffffff; stroke-width: 0.5; stroke-linejoin: miter"/>
   </g>
   <g id="patch_7">
    <path d="M 145.698462 67.565788 
L 168.361846 67.565788 
L 168.361846 52.456865 
L 145.698462 52.456865 
z
" clip-path="url(#p8e46ca4811)" style="fill: #e2e8f0; opacity: 0.4; stroke: #ffffff; stroke-width: 0.5; stroke-linejoin: miter"/>
   </g>
   <g id="patch_8">
    <path d="M 170.88 67.565788 
L 193.543385 67.565788 
L 193.543385 52.456865 
L 170.88 52.456865 
z
" clip-path="url(#p8e46ca4811)" style="fill: #3b82f6; stroke: #ffffff; stroke-width: 0.5; stroke-linejoin: miter"/>
   </g>
   <g id="patch_9">
    <path d="M 196.061538 67.565788 
L 218.724923 67.565788 
L 218.724923 52.456865 
L 196.061538 52.456865 
z
" clip-path="url(#p8e46ca4811)" style="fill: #e2e8f0; opacity: 0.4; stroke: #ffffff; stroke-width: 0.5; stroke-linejoin: miter"/>
   </g>
   <g id="patch_10">
    <path d="M 221.243077 67.565788 
L 243.906462 67.565788 
L 243.906462 52.456865 
L 221.243077 52.456865 
z
" clip-path="url(#p8e46ca4811)" style="fill: #e2e8f0; opacity: 0.4; stroke: #ffffff; stroke-width: 0.5; stroke-linejoin: miter"/>
   </g>
   <g id="patch_11">
    <path d="M 246.424615 67.565788 
L 269.088 67.565788 
L 269.088 52.456865 
L 246.424615 52.456865 
z
" clip-path="url(#p8e46ca4811)" style="fill: #22c55e; stroke: #ffffff; stroke-width: 0.5; stroke-linejoin: miter"/>
   </g>
   <g id="patch_12">
    <path d="M 271.606154 67.565788 
L 294.269538 67.565788 
L 294.269538 52.456865 
L 271.606154 52.456865 
z
" clip-path="url(#p8e46ca4811)" style="fill: #22c55e; stroke: #ffffff; stroke-width: 0.5; stroke-linejoin: miter"/>
   </g>
   <g id="patch_13">
    <path d="M 296.787692 67.565788 
L 319.451077 67.565788 
L 319.451077 52.456865 
L 296.787692 52.456865 
z
" clip-path="url(#p8e46ca4811)" style="fill: #22c55e; stroke: #ffffff; stroke-width: 0.5; stroke-linejoin: miter"/>
   </g>
   <g id="patch_14">
    <path d="M 321.969231 67.565788 
L 344.632615 67.565788 
L 344.632615 52.456865 
L 321.969231 52.456865 
z
" clip-path="url(#p8e46ca4811)" style="fill: #22c55e; stroke: #ffffff; stroke-width: 0.5; stroke-linejoin: miter"/>
   </g>
   <g id="patch_15">
    <path d="M 347.150769 67.565788 
L 369.814154 67.565788 
L 369.814154 52.456865 
L 347.150769 52.456865 
z
" clip-path="url(#p8e46ca4811)" style="fill: #22c55e; stroke: #ffffff; stroke-width: 0.5; stroke-linejoin: miter"/>
   </g>
   <g id="patch_16">
    <path d="M 372.332308 67.565788 
L 394.995692 67.565788 
L 394.995692 52.456865 
L 372.332308 52.456865 
z
" clip-path="url(#p8e46ca4811)" style="fill: #22c55e; stroke: #ffffff; stroke-width: 0.5; stroke-linejoin: miter"/>
   </g>
   <g id="patch_17">
    <path d="M 397.513846 67.565788 
L 420.177231 67.565788 
L 420.177231 52.456865 
L 397.513846 52.456865 
z
" clip-path="url(#p8e46ca4811)" style="fill: #e2e8f0; opacity: 0.4; stroke: #ffffff; stroke-width: 0.5; stroke-linejoin: miter"/>
   </g>
   <g id="patch_18">
    <path d="M 422.695385 67.565788 
L 445.358769 67.565788 
L 445.358769 52.456865 
L 422.695385 52.456865 
z
" clip-path="url(#p8e46ca4811)" style="fill: #e2e8f0; opacity: 0.4; stroke: #ffffff; stroke-width: 0.5; stroke-linejoin: miter"/>
   </g>
   <g id="patch_19">
    <path d="M 447.876923 67.565788 
L 470.540308 67.565788 
L 470.540308 52.456865 
L 447.876923 52.456865 
z
" clip-path="url(#p8e46ca4811)" style="fill: #e2e8f0; opacity: 0.4; stroke: #ffffff; stroke-width: 0.5; stroke-linejoin: miter"/>
   </g>
   <g id="patch_20">
    <path d="M 473.058462 67.565788 
L 495.721846 67.565788 
L 495.721846 52.456865 
L 473.058462 52.456865 
z
" clip-path="url(#p8e46ca4811)" style="fill: #a855f7; stroke: #ffffff; stroke-width: 0.5; stroke-linejoin: miter"/>
   </g>
   <g id="patch_21">
    <path d="M 498.24 67.565788 
L 520.903385 67.565788 
L 520.903385 52.456865 
L 498.24 52.456865 
z
" clip-path="url(#p8e46ca4811)" style="fill: #f97316; stroke: #ffffff; stroke-width: 0.5; stroke-linejoin: miter"/>
   </g>
   <g id="patch_22">
    <path d="M 523.421538 67.565788 
L 546.084923 67.565788 
L 546.084923 52.456865 
L 523.421538 52.456865 
z
" clip-path="url(#p8e46ca4811)" style="fill: #e2e8f0; opacity: 0.4; stroke: #ffffff; stroke-width: 0.5; stroke-linejoin: miter"/>
   </g>
   <g id="patch_23">
    <path d="M 548.603077 67.565788 
L 571.266462 67.565788 
L 571.266462 52.456865 
L 548.603077 52.456865 
z
" clip-path="url(#p8e46ca4811)" style="fill: #e2e8f0; opacity: 0.4; stroke: #ffffff; stroke-width: 0.5; stroke-linejoin: miter"/>
   </g>
   <g id="patch_24">
    <path d="M 573.784615 67.565788 
L 596.448 67.565788 
L 596.448 52.456865 
L 573.784615 52.456865 
z
" clip-path="url(#p8e46ca4811)" style="fill: #e2e8f0; opacity: 0.4; stroke: #ffffff; stroke-width: 0.5; stroke-linejoin: miter"/>
   </g>
   <g id="patch_25">
    <path d="M 598.966154 67.565788 
L 621.629538 67.565788 
L 621.629538 52.456865 
L 598.966154 52.456865 
z
" clip-path="url(#p8e46ca4811)" style="fill: #e2e8f0; opacity: 0.4; stroke: #ffffff; stroke-width: 0.5; stroke-linejoin: miter"/>
   </g>
   <g id="patch_26">
    <path d="M 624.147692 67.565788 
L 646.811077 67.565788 
L 646.811077 52.456865 
L 624.147692 52.456865 
z
" clip-path="url(#p8e46ca4811)" style="fill: #e2e8f0; opacity: 0.4; stroke: #ffffff; stroke-width: 0.5; stroke-linejoin: miter"/>
   </g>
   <g id="patch_27">
    <path d="M 649.329231 67.565788 
L 671.992615 67.565788 
L 671.992615 52.456865 
L 649.329231 52.456865 
z
" clip-path="url(#p8e46ca4811)" style="fill: #f97316; stroke: #ffffff; stroke-width: 0.5; stroke-linejoin: miter"/>
   </g>
   <g id="patch_28">
    <path d="M 674.510769 67.565788 
L 697.174154 67.565788 
L 697.174154 52.456865 
L 674.510769 52.456865 
z
" clip-path="url(#p8e46ca4811)" style="fill: #f97316; stroke: #ffffff; stroke-width: 0.5; stroke-linejoin: miter"/>
   </g>
   <g id="patch_29">
    <path d="M 699.692308 67.565788 
L 722.355692 67.565788 
L 722.355692 52.456865 
L 699.692308 52.456865 
z
" clip-path="url(#p8e46ca4811)" style="fill: #f97316; stroke: #ffffff; stroke-width: 0.5; stroke-linejoin: miter"/>
   </g>
   <g id="patch_30">
    <path d="M 724.873846 67.565788 
L 747.537231 67.565788 
L 747.537231 52.456865 
L 724.873846 52.456865 
z
" clip-path="url(#p8e46ca4811)" style="fill: #3b82f6; stroke: #ffffff; stroke-width: 0.5; stroke-linejoin: miter"/>
   </g>
   <g id="patch_31">
    <path d="M 750.055385 67.565788 
L 772.718769 67.565788 
L 772.718769 52.456865 
L 750.055385 52.456865 
z
" clip-path="url(#p8e46ca4811)" style="fill: #3b82f6; stroke: #ffffff; stroke-width: 0.5; stroke-linejoin: miter"/>
   </g>
   <g id="patch_32">
    <path d="M 775.236923 67.565788 
L 797.900308 67.565788 
L 797.900308 52.456865 
L 775.236923 52.456865 
z
" clip-path="url(#p8e46ca4811)" style="fill: #3b82f6; stroke: #ffffff; stroke-width: 0.5; stroke-linejoin: miter"/>
   </g>
   <g id="patch_33">
    <path d="M 800.418462 67.565788 
L 823.081846 67.565788 
L 823.081846 52.456865 
L 800.418462 52.456865 
z
" clip-path="url(#p8e46ca4811)" style="fill: #3b82f6; stroke: #ffffff; stroke-width: 0.5; stroke-linejoin: miter"/>
   </g>
   <g id="patch_34">
    <path d="M 825.6 67.565788 
L 848.263385 67.565788 
L 848.263385 52.456865 
L 825.6 52.456865 
z
" clip-path="url(#p8e46ca4811)" style="fill: #e2e8f0; opacity: 0.4; stroke: #ffffff; stroke-width: 0.5; stroke-linejoin: miter"/>
   </g>
   <g id="patch_35">
    <path d="M 850.781538 67.565788 
L 873.444923 67.565788 
L 873.444923 52.456865 
L 850.781538 52.456865 
z
" clip-path="url(#p8e46ca4811)" style="fill: #e2e8f0; opacity: 0.4; stroke: #ffffff; stroke-width: 0.5; stroke-linejoin: miter"/>
   </g>
   <g id="patch_36">
    <path d="M 875.963077 67.565788 
L 898.626462 67.565788 
L 898.626462 52.456865 
L 875.963077 52.456865 
z
" clip-path="url(#p8e46ca4811)" style="fill: #e2e8f0; opacity: 0.4; stroke: #ffffff; stroke-width: 0.5; stroke-linejoin: miter"/>
   </g>
   <g id="patch_37">
    <path d="M 901.144615 67.565788 
L 923.808 67.565788 
L 923.808 52.456865 
L 901.144615 52.456865 
z
" clip-path="url(#p8e46ca4811)" style="fill: #ec4899; stroke: #ffffff; stroke-width: 0.5; stroke-linejoin: miter"/>
   </g>
   <g id="patch_38">
    <path d="M 926.326154 67.565788 
L 948.989538 67.565788 
L 948.989538 52.456865 
L 926.326154 52.456865 
z
" clip-path="url(#p8e46ca4811)" style="fill: #e2e8f0; opacity: 0.4; stroke: #ffffff; stroke-width: 0.5; stroke-linejoin: miter"/>
   </g>
   <g id="patch_39">
    <path d="M 951.507692 67.565788 
L 974.171077 67.565788 
L 974.171077 52.456865 
L 951.507692 52.456865 
z
" clip-path="url(#p8e46ca4811)" style="fill: #14b8a6; stroke: #ffffff; stroke-width: 0.5; stroke-linejoin: miter"/>
   </g>
   <g id="patch_40">
    <path d="M 19.790769 97.783635 
L 42.454154 97.783635 
L 42.454154 82.674712 
L 19.790769 82.674712 
z
" clip-path="url(#p8e46ca4811)" style="fill: #e2e8f0; opacity: 0.4; stroke: #ffffff; stroke-width: 0.5; stroke-linejoin: miter"/>
   </g>
   <g id="patch_41">
    <path d="M 44.972308 97.783635 
L 67.635692 97.783635 
L 67.635692 82.674712 
L 44.972308 82.674712 
z
" clip-path="url(#p8e46ca4811)" style="fill: #ef4444; stroke: #ffffff; stroke-width: 0.5; stroke-linejoin: miter"/>
   </g>
   <g id="patch_42">
    <path d="M 70.153846 97.783635 
L 92.817231 97.783635 
L 92.817231 82.674712 
L 70.153846 82.674712 
z
" clip-path="url(#p8e46ca4811)" style="fill: #ef4444; stroke: #ffffff; stroke-width: 0.5; stroke-linejoin: miter"/>
   </g>
   <g id="patch_43">
    <path d="M 95.335385 97.783635 
L 117.998769 97.783635 
L 117.998769 82.674712 
L 95.335385 82.674712 
z
" clip-path="url(#p8e46ca4811)" style="fill: #ef4444; stroke: #ffffff; stroke-width: 0.5; stroke-linejoin: miter"/>
   </g>
   <g id="patch_44">
    <path d="M 120.516923 97.783635 
L 143.180308 97.783635 
L 143.180308 82.674712 
L 120.516923 82.674712 
z
" clip-path="url(#p8e46ca4811)" style="fill: #ef4444; stroke: #ffffff; stroke-width: 0.5; stroke-linejoin: miter"/>
   </g>
   <g id="patch_45">
    <path d="M 145.698462 97.783635 
L 168.361846 97.783635 
L 168.361846 82.674712 
L 145.698462 82.674712 
z
" clip-path="url(#p8e46ca4811)" style="fill: #ef4444; stroke: #ffffff; stroke-width: 0.5; stroke-linejoin: miter"/>
   </g>
   <g id="patch_46">
    <path d="M 170.88 97.783635 
L 193.543385 97.783635 
L 193.543385 82.674712 
L 170.88 82.674712 
z
" clip-path="url(#p8e46ca4811)" style="fill: #ef4444; stroke: #ffffff; stroke-width: 0.5; stroke-linejoin: miter"/>
   </g>
   <g id="patch_47">
    <path d="M 196.061538 97.783635 
L 218.724923 97.783635 
L 218.724923 82.674712 
L 196.061538 82.674712 
z
" clip-path="url(#p8e46ca4811)" style="fill: #ef4444; stroke: #ffffff; stroke-width: 0.5; stroke-linejoin: miter"/>
   </g>
   <g id="patch_48">
    <path d="M 221.243077 97.783635 
L 243.906462 97.783635 
L 243.906462 82.674712 
L 221.243077 82.674712 
z
" clip-path="url(#p8e46ca4811)" style="fill: #e2e8f0; opacity: 0.4; stroke: #ffffff; stroke-width: 0.5; stroke-linejoin: miter"/>
   </g>
   <g id="patch_49">
    <path d="M 246.424615 97.783635 
L 269.088 97.783635 
L 269.088 82.674712 
L 246.424615 82.674712 
z
" clip-path="url(#p8e46ca4811)" style="fill: #e2e8f0; opacity: 0.4; stroke: #ffffff; stroke-width: 0.5; stroke-linejoin: miter"/>
   </g>
   <g id="patch_50">
    <path d="M 271.606154 97.783635 
L 294.269538 97.783635 
L 294.269538 82.674712 
L 271.606154 82.674712 
z
" clip-path="url(#p8e46ca4811)" style="fill: #e2e8f0; opacity: 0.4; stroke: #ffffff; stroke-width: 0.5; stroke-linejoin: miter"/>
   </g>
   <g id="patch_51">
    <path d="M 296.787692 97.783635 
L 319.451077 97.783635 
L 319.451077 82.674712 
L 296.787692 82.674712 
z
" clip-path="url(#p8e46ca4811)" style="fill: #8b5cf6; stroke: #ffffff; stroke-width: 0.5; stroke-linejoin: miter"/>
   </g>
   <g id="patch_52">
    <path d="M 321.969231 97.783635 
L 344.632615 97.783635 
L 344.632615 82.674712 
L 321.969231 82.674712 
z
" clip-path="url(#p8e46ca4811)" style="fill: #e2e8f0; opacity: 0.4; stroke: #ffffff; stroke-width: 0.5; stroke-linejoin: miter"/>
   </g>
   <g id="patch_53">
    <path d="M 347.150769 97.783635 
L 369.814154 97.783635 
L 369.814154 82.674712 
L 347.150769 82.674712 
z
" clip-path="url(#p8e46ca4811)" style="fill: #e2e8f0; opacity: 0.4; stroke: #ffffff; stroke-width: 0.5; stroke-linejoin: miter"/>
   </g>
   <g id="patch_54">
    <path d="M 372.332308 97.783635 
L 394.995692 97.783635 
L 394.995692 82.674712 
L 372.332308 82.674712 
z
" clip-path="url(#p8e46ca4811)" style="fill: #e2e8f0; opacity: 0.4; stroke: #ffffff; stroke-width: 0.5; stroke-linejoin: miter"/>
   </g>
   <g id="patch_55">
    <path d="M 397.513846 97.783635 
L 420.177231 97.783635 
L 420.177231 82.674712 
L 397.513846 82.674712 
z
" clip-path="url(#p8e46ca4811)" style="fill: #e2e8f0; opacity: 0.4; stroke: #ffffff; stroke-width: 0.5; stroke-linejoin: miter"/>
   </g>
   <g id="patch_56">
    <path d="M 422.695385 97.783635 
L 445.358769 97.783635 
L 445.358769 82.674712 
L 422.695385 82.674712 
z
" clip-path="url(#p8e46ca4811)" style="fill: #e2e8f0; opacity: 0.4; stroke: #ffffff; stroke-width: 0.5; stroke-linejoin: miter"/>
   </g>
   <g id="patch_57">
    <path d="M 447.876923 97.783635 
L 470.540308 97.783635 
L 470.540308 82.674712 
L 447.876923 82.674712 
z
" clip-path="url(#p8e46ca4811)" style="fill: #e2e8f0; opacity: 0.4; stroke: #ffffff; stroke-width: 0.5; stroke-linejoin: miter"/>
   </g>
   <g id="patch_58">
    <path d="M 473.058462 97.783635 
L 495.721846 97.783635 
L 495.721846 82.674712 
L 473.058462 82.674712 
z
" clip-path="url(#p8e46ca4811)" style="fill: #e2e8f0; opacity: 0.4; stroke: #ffffff; stroke-width: 0.5; stroke-linejoin: miter"/>
   </g>
   <g id="patch_59">
    <path d="M 498.24 97.783635 
L 520.903385 97.783635 
L 520.903385 82.674712 
L 498.24 82.674712 
z
" clip-path="url(#p8e46ca4811)" style="fill: #e2e8f0; opacity: 0.4; stroke: #ffffff; stroke-width: 0.5; stroke-linejoin: miter"/>
   </g>
   <g id="patch_60">
    <path d="M 523.421538 97.783635 
L 546.084923 97.783635 
L 546.084923 82.674712 
L 523.421538 82.674712 
z
" clip-path="url(#p8e46ca4811)" style="fill: #e2e8f0; opacity: 0.4; stroke: #ffffff; stroke-width: 0.5; stroke-linejoin: miter"/>
   </g>
   <g id="patch_61">
    <path d="M 548.603077 97.783635 
L 571.266462 97.783635 
L 571.266462 82.674712 
L 548.603077 82.674712 
z
" clip-path="url(#p8e46ca4811)" style="fill: #e2e8f0; opacity: 0.4; stroke: #ffffff; stroke-width: 0.5; stroke-linejoin: miter"/>
   </g>
   <g id="patch_62">
    <path d="M 573.784615 97.783635 
L 596.448 97.783635 
L 596.448 82.674712 
L 573.784615 82.674712 
z
" clip-path="url(#p8e46ca4811)" style="fill: #e2e8f0; opacity: 0.4; stroke: #ffffff; stroke-width: 0.5; stroke-linejoin: miter"/>
   </g>
   <g id="patch_63">
    <path d="M 598.966154 97.783635 
L 621.629538 97.783635 
L 621.629538 82.674712 
L 598.966154 82.674712 
z
" clip-path="url(#p8e46ca4811)" style="fill: #e2e8f0; opacity: 0.4; stroke: #ffffff; stroke-width: 0.5; stroke-linejoin: miter"/>
   </g>
   <g id="patch_64">
    <path d="M 624.147692 97.783635 
L 646.811077 97.783635 
L 646.811077 82.674712 
L 624.147692 82.674712 
z
" clip-path="url(#p8e46ca4811)" style="fill: #e2e8f0; opacity: 0.4; stroke: #ffffff; stroke-width: 0.5; stroke-linejoin: miter"/>
   </g>
   <g id="patch_65">
    <path d="M 649.329231 97.783635 
L 671.992615 97.783635 
L 671.992615 82.674712 
L 649.329231 82.674712 
z
" clip-path="url(#p8e46ca4811)" style="fill: #e2e8f0; opacity: 0.4; stroke: #ffffff; stroke-width: 0.5; stroke-linejoin: miter"/>
   </g>
   <g id="patch_66">
    <path d="M 674.510769 97.783635 
L 697.174154 97.783635 
L 697.174154 82.674712 
L 674.510769 82.674712 
z
" clip-path="url(#p8e46ca4811)" style="fill: #e2e8f0; opacity: 0.4; stroke: #ffffff; stroke-width: 0.5; stroke-linejoin: miter"/>
   </g>
   <g id="patch_67">
    <path d="M 699.692308 97.783635 
L 722.355692 97.783635 
L 722.355692 82.674712 
L 699.692308 82.674712 
z
" clip-path="url(#p8e46ca4811)" style="fill: #e2e8f0; opacity: 0.4; stroke: #ffffff; stroke-width: 0.5; stroke-linejoin: miter"/>
   </g>
   <g id="patch_68">
    <path d="M 724.873846 97.783635 
L 747.537231 97.783635 
L 747.537231 82.674712 
L 724.873846 82.674712 
z
" clip-path="url(#p8e46ca4811)" style="fill: #e2e8f0; opacity: 0.4; stroke: #ffffff; stroke-width: 0.5; stroke-linejoin: miter"/>
   </g>
   <g id="patch_69">
    <path d="M 750.055385 97.783635 
L 772.718769 97.783635 
L 772.718769 82.674712 
L 750.055385 82.674712 
z
" clip-path="url(#p8e46ca4811)" style="fill: #06b6d4; stroke: #ffffff; stroke-width: 0.5; stroke-linejoin: miter"/>
   </g>
   <g id="patch_70">
    <path d="M 775.236923 97.783635 
L 797.900308 97.783635 
L 797.900308 82.674712 
L 775.236923 82.674712 
z
" clip-path="url(#p8e46ca4811)" style="fill: #e2e8f0; opacity: 0.4; stroke: #ffffff; stroke-width: 0.5; stroke-linejoin: miter"/>
   </g>
   <g id="patch_71">
    <path d="M 800.418462 97.783635 
L 823.081846 97.783635 
L 823.081846 82.674712 
L 800.418462 82.674712 
z
" clip-path="url(#p8e46ca4811)" style="fill: #e2e8f0; opacity: 0.4; stroke: #ffffff; stroke-width: 0.5; stroke-linejoin: miter"/>
   </g>
   <g id="patch_72">
    <path d="M 825.6 97.783635 
L 848.263385 97.783635 
L 848.263385 82.674712 
L 825.6 82.674712 
z
" clip-path="url(#p8e46ca4811)" style="fill: #e2e8f0; opacity: 0.4; stroke: #ffffff; stroke-width: 0.5; stroke-linejoin: miter"/>
   </g>
   <g id="patch_73">
    <path d="M 850.781538 97.783635 
L 873.444923 97.783635 
L 873.444923 82.674712 
L 850.781538 82.674712 
z
" clip-path="url(#p8e46ca4811)" style="fill: #e2e8f0; opacity: 0.4; stroke: #ffffff; stroke-width: 0.5; stroke-linejoin: miter"/>
   </g>
   <g id="patch_74">
    <path d="M 875.963077 97.783635 
L 898.626462 97.783635 
L 898.626462 82.674712 
L 875.963077 82.674712 
z
" clip-path="url(#p8e46ca4811)" style="fill: #e2e8f0; opacity: 0.4; stroke: #ffffff; stroke-width: 0.5; stroke-linejoin: miter"/>
   </g>
   <g id="patch_75">
    <path d="M 901.144615 97.783635 
L 923.808 97.783635 
L 923.808 82.674712 
L 901.144615 82.674712 
z
" clip-path="url(#p8e46ca4811)" style="fill: #e2e8f0; opacity: 0.4; stroke: #ffffff; stroke-width: 0.5; stroke-linejoin: miter"/>
   </g>
   <g id="patch_76">
    <path d="M 926.326154 97.783635 
L 948.989538 97.783635 
L 948.989538 82.674712 
L 926.326154 82.674712 
z
" clip-path="url(#p8e46ca4811)" style="fill: #e2e8f0; opacity: 0.4; stroke: #ffffff; stroke-width: 0.5; stroke-linejoin: miter"/>
   </g>
   <g id="patch_77">
    <path d="M 951.507692 97.783635 
L 974.171077 97.783635 
L 974.171077 82.674712 
L 951.507692 82.674712 
z
" clip-path="url(#p8e46ca4811)" style="fill: #e2e8f0; opacity: 0.4; stroke: #ffffff; stroke-width: 0.5; stroke-linejoin: miter"/>
   </g>
   <g id="patch_78">
    <path d="M 19.790769 128.001481 
L 42.454154 128.001481 
L 42.454154 112.892558 
L 19.790769 112.892558 
z
" clip-path="url(#p8e46ca4811)" style="fill: #e2e8f0; opacity: 0.4; stroke: #ffffff; stroke-width: 0.5; stroke-linejoin: miter"/>
   </g>
   <g id="patch_79">
    <path d="M 44.972308 128.001481 
L 67.635692 128.001481 
L 67.635692 112.892558 
L 44.972308 112.892558 
z
" clip-path="url(#p8e46ca4811)" style="fill: #e2e8f0; opacity: 0.4; stroke: #ffffff; stroke-width: 0.5; stroke-linejoin: miter"/>
   </g>
   <g id="patch_80">
    <path d="M 70.153846 128.001481 
L 92.817231 128.001481 
L 92.817231 112.892558 
L 70.153846 112.892558 
z
" clip-path="url(#p8e46ca4811)" style="fill: #e2e8f0; opacity: 0.4; stroke: #ffffff; stroke-width: 0.5; stroke-linejoin: miter"/>
   </g>
   <g id="patch_81">
    <path d="M 95.335385 128.001481 
L 117.998769 128.001481 
L 117.998769 112.892558 
L 95.335385 112.892558 
z
" clip-path="url(#p8e46ca4811)" style="fill: #e2e8f0; opacity: 0.4; stroke: #ffffff; stroke-width: 0.5; stroke-linejoin: miter"/>
   </g>
   <g id="patch_82">
    <path d="M 120.516923 128.001481 
L 143.180308 128.001481 
L 143.180308 112.892558 
L 120.516923 112.892558 
z
" clip-path="url(#p8e46ca4811)" style="fill: #e2e8f0; opacity: 0.4; stroke: #ffffff; stroke-width: 0.5; stroke-linejoin: miter"/>
   </g>
   <g id="patch_83">
    <path d="M 145.698462 128.001481 
L 168.361846 128.001481 
L 168.361846 112.892558 
L 145.698462 112.892558 
z
" clip-path="url(#p8e46ca4811)" style="fill: #e2e8f0; opacity: 0.4; stroke: #ffffff; stroke-width: 0.5; stroke-linejoin: miter"/>
   </g>
   <g id="patch_84">
    <path d="M 170.88 128.001481 
L 193.543385 128.001481 
L 193.543385 112.892558 
L 170.88 112.892558 
z
" clip-path="url(#p8e46ca4811)" style="fill: #e2e8f0; opacity: 0.4; stroke: #ffffff; stroke-width: 0.5; stroke-linejoin: miter"/>
   </g>
   <g id="patch_85">
    <path d="M 196.061538 128.001481 
L 218.724923 128.001481 
L 218.724923 112.892558 
L 196.061538 112.892558 
z
" clip-path="url(#p8e46ca4811)" style="fill: #e2e8f0; opacity: 0.4; stroke: #ffffff; stroke-width: 0.5; stroke-linejoin: miter"/>
   </g>
   <g id="patch_86">
    <path d="M 221.243077 128.001481 
L 243.906462 128.001481 
L 243.906462 112.892558 
L 221.243077 112.892558 
z
" clip-path="url(#p8e46ca4811)" style="fill: #e2e8f0; opacity: 0.4; stroke: #ffffff; stroke-width: 0.5; stroke-linejoin: miter"/>
   </g>
   <g id="patch_87">
    <path d="M 246.424615 128.001481 
L 269.088 128.001481 
L 269.088 112.892558 
L 246.424615 112.892558 
z
" clip-path="url(#p8e46ca4811)" style="fill: #e2e8f0; opacity: 0.4; stroke: #ffffff; stroke-width: 0.5; stroke-linejoin: miter"/>
   </g>
   <g id="patch_88">
    <path d="M 271.606154 128.001481 
L 294.269538 128.001481 
L 294.269538 112.892558 
L 271.606154 112.892558 
z
" clip-path="url(#p8e46ca4811)" style="fill: #e2e8f0; opacity: 0.4; stroke: #ffffff; stroke-width: 0.5; stroke-linejoin: miter"/>
   </g>
   <g id="patch_89">
    <path d="M 296.787692 128.001481 
L 319.451077 128.001481 
L 319.451077 112.892558 
L 296.787692 112.892558 
z
" clip-path="url(#p8e46ca4811)" style="fill: #e2e8f0; opacity: 0.4; stroke: #ffffff; stroke-width: 0.5; stroke-linejoin: miter"/>
   </g>
   <g id="patch_90">
    <path d="M 321.969231 128.001481 
L 344.632615 128.001481 
L 344.632615 112.892558 
L 321.969231 112.892558 
z
" clip-path="url(#p8e46ca4811)" style="fill: #e2e8f0; opacity: 0.4; stroke: #ffffff; stroke-width: 0.5; stroke-linejoin: miter"/>
   </g>
   <g id="patch_91">
    <path d="M 347.150769 128.001481 
L 369.814154 128.001481 
L 369.814154 112.892558 
L 347.150769 112.892558 
z
" clip-path="url(#p8e46ca4811)" style="fill: #e2e8f0; opacity: 0.4; stroke: #ffffff; stroke-width: 0.5; stroke-linejoin: miter"/>
   </g>
   <g id="patch_92">
    <path d="M 372.332308 128.001481 
L 394.995692 128.001481 
L 394.995692 112.892558 
L 372.332308 112.892558 
z
" clip-path="url(#p8e46ca4811)" style="fill: #e2e8f0; opacity: 0.4; stroke: #ffffff; stroke-width: 0.5; stroke-linejoin: miter"/>
   </g>
   <g id="patch_93">
    <path d="M 397.513846 128.001481 
L 420.177231 128.001481 
L 420.177231 112.892558 
L 397.513846 112.892558 
z
" clip-path="url(#p8e46ca4811)" style="fill: #e2e8f0; opacity: 0.4; stroke: #ffffff; stroke-width: 0.5; stroke-linejoin: miter"/>
   </g>
   <g id="patch_94">
    <path d="M 422.695385 128.001481 
L 445.358769 128.001481 
L 445.358769 112.892558 
L 422.695385 112.892558 
z
" clip-path="url(#p8e46ca4811)" style="fill: #e2e8f0; opacity: 0.4; stroke: #ffffff; stroke-width: 0.5; stroke-linejoin: miter"/>
   </g>
   <g id="patch_95">
    <path d="M 447.876923 128.001481 
L 470.540308 128.001481 
L 470.540308 112.892558 
L 447.876923 112.892558 
z
" clip-path="url(#p8e46ca4811)" style="fill: #e2e8f0; opacity: 0.4; stroke: #ffffff; stroke-width: 0.5; stroke-linejoin: miter"/>
   </g>
   <g id="patch_96">
    <path d="M 473.058462 128.001481 
L 495.721846 128.001481 
L 495.721846 112.892558 
L 473.058462 112.892558 
z
" clip-path="url(#p8e46ca4811)" style="fill: #e2e8f0; opacity: 0.4; stroke: #ffffff; stroke-width: 0.5; stroke-linejoin: miter"/>
   </g>
   <g id="patch_97">
    <path d="M 498.24 128.001481 
L 520.903385 128.001481 
L 520.903385 112.892558 
L 498.24 112.892558 
z
" clip-path="url(#p8e46ca4811)" style="fill: #e2e8f0; opacity: 0.4; stroke: #ffffff; stroke-width: 0.5; stroke-linejoin: miter"/>
   </g>
   <g id="patch_98">
    <path d="M 523.421538 128.001481 
L 546.084923 128.001481 
L 546.084923 112.892558 
L 523.421538 112.892558 
z
" clip-path="url(#p8e46ca4811)" style="fill: #e2e8f0; opacity: 0.4; stroke: #ffffff; stroke-width: 0.5; stroke-linejoin: miter"/>
   </g>
   <g id="patch_99">
    <path d="M 548.603077 128.001481 
L 571.266462 128.001481 
L 571.266462 112.892558 
L 548.603077 112.892558 
z
" clip-path="url(#p8e46ca4811)" style="fill: #e2e8f0; opacity: 0.4; stroke: #ffffff; stroke-width: 0.5; stroke-linejoin: miter"/>
   </g>
   <g id="patch_100">
    <path d="M 573.784615 128.001481 
L 596.448 128.001481 
L 596.448 112.892558 
L 573.784615 112.892558 
z
" clip-path="url(#p8e46ca4811)" style="fill: #e2e8f0; opacity: 0.4; stroke: #ffffff; stroke-width: 0.5; stroke-linejoin: miter"/>
   </g>
   <g id="patch_101">
    <path d="M 598.966154 128.001481 
L 621.629538 128.001481 
L 621.629538 112.892558 
L 598.966154 112.892558 
z
" clip-path="url(#p8e46ca4811)" style="fill: #e2e8f0; opacity: 0.4; stroke: #ffffff; stroke-width: 0.5; stroke-linejoin: miter"/>
   </g>
   <g id="patch_102">
    <path d="M 624.147692 128.001481 
L 646.811077 128.001481 
L 646.811077 112.892558 
L 624.147692 112.892558 
z
" clip-path="url(#p8e46ca4811)" style="fill: #e2e8f0; opacity: 0.4; stroke: #ffffff; stroke-width: 0.5; stroke-linejoin: miter"/>
   </g>
   <g id="patch_103">
    <path d="M 649.329231 128.001481 
L 671.992615 128.001481 
L 671.992615 112.892558 
L 649.329231 112.892558 
z
" clip-path="url(#p8e46ca4811)" style="fill: #e2e8f0; opacity: 0.4; stroke: #ffffff; stroke-width: 0.5; stroke-linejoin: miter"/>
   </g>
   <g id="patch_104">
    <path d="M 674.510769 128.001481 
L 697.174154 128.001481 
L 697.174154 112.892558 
L 674.510769 112.892558 
z
" clip-path="url(#p8e46ca4811)" style="fill: #e2e8f0; opacity: 0.4; stroke: #ffffff; stroke-width: 0.5; stroke-linejoin: miter"/>
   </g>
   <g id="patch_105">
    <path d="M 699.692308 128.001481 
L 722.355692 128.001481 
L 722.355692 112.892558 
L 699.692308 112.892558 
z
" clip-path="url(#p8e46ca4811)" style="fill: #e2e8f0; opacity: 0.4; stroke: #ffffff; stroke-width: 0.5; stroke-linejoin: miter"/>
   </g>
   <g id="patch_106">
    <path d="M 724.873846 128.001481 
L 747.537231 128.001481 
L 747.537231 112.892558 
L 724.873846 112.892558 
z
" clip-path="url(#p8e46ca4811)" style="fill: #e2e8f0; opacity: 0.4; stroke: #ffffff; stroke-width: 0.5; stroke-linejoin: miter"/>
   </g>
   <g id="patch_107">
    <path d="M 750.055385 128.001481 
L 772.718769 128.001481 
L 772.718769 112.892558 
L 750.055385 112.892558 
z
" clip-path="url(#p8e46ca4811)" style="fill: #e2e8f0; opacity: 0.4; stroke: #ffffff; stroke-width: 0.5; stroke-linejoin: miter"/>
   </g>
   <g id="patch_108">
    <path d="M 775.236923 128.001481 
L 797.900308 128.001481 
L 797.900308 112.892558 
L 775.236923 112.892558 
z
" clip-path="url(#p8e46ca4811)" style="fill: #e2e8f0; opacity: 0.4; stroke: #ffffff; stroke-width: 0.5; stroke-linejoin: miter"/>
   </g>
   <g id="patch_109">
    <path d="M 800.418462 128.001481 
L 823.081846 128.001481 
L 823.081846 112.892558 
L 800.418462 112.892558 
z
" clip-path="url(#p8e46ca4811)" style="fill: #e2e8f0; opacity: 0.4; stroke: #ffffff; stroke-width: 0.5; stroke-linejoin: miter"/>
   </g>
   <g id="patch_110">
    <path d="M 825.6 128.001481 
L 848.263385 128.001481 
L 848.263385 112.892558 
L 825.6 112.892558 
z
" clip-path="url(#p8e46ca4811)" style="fill: #e2e8f0; opacity: 0.4; stroke: #ffffff; stroke-width: 0.5; stroke-linejoin: miter"/>
   </g>
   <g id="patch_111">
    <path d="M 850.781538 128.001481 
L 873.444923 128.001481 
L 873.444923 112.892558 
L 850.781538 112.892558 
z
" clip-path="url(#p8e46ca4811)" style="fill: #e2e8f0; opacity: 0.4; stroke: #ffffff; stroke-width: 0.5; stroke-linejoin: miter"/>
   </g>
   <g id="patch_112">
    <path d="M 875.963077 128.001481 
L 898.626462 128.001481 
L 898.626462 112.892558 
L 875.963077 112.892558 
z
" clip-path="url(#p8e46ca4811)" style="fill: #e2e8f0; opacity: 0.4; stroke: #ffffff; stroke-width: 0.5; stroke-linejoin: miter"/>
   </g>
   <g id="patch_113">
    <path d="M 901.144615 128.001481 
L 923.808 128.001481 
L 923.808 112.892558 
L 901.144615 112.892558 
z
" clip-path="url(#p8e46ca4811)" style="fill: #e2e8f0; opacity: 0.4; stroke: #ffffff; stroke-width: 0.5; stroke-linejoin: miter"/>
   </g>
   <g id="patch_114">
    <path d="M 926.326154 128.001481 
L 948.989538 128.001481 
L 948.989538 112.892558 
L 926.326154 112.892558 
z
" clip-path="url(#p8e46ca4811)" style="fill: #e2e8f0; opacity: 0.4; stroke: #ffffff; stroke-width: 0.5; stroke-linejoin: miter"/>
   </g>
   <g id="patch_115">
    <path d="M 951.507692 128.001481 
L 974.171077 128.001481 
L 974.171077 112.892558 
L 951.507692 112.892558 
z
" clip-path="url(#p8e46ca4811)" style="fill: #e2e8f0; opacity: 0.4; stroke: #ffffff; stroke-width: 0.5; stroke-linejoin: miter"/>
   </g>
   <g id="text_1">
    <!-- 1 -->
    <g style="fill: #64748b" transform="translate(29.176133 61.820936) scale(0.07 -0.07)">
     <defs>
      <path id="ArialMT-31" d="M 2384 0 
L 1822 0 
L 1822 3584 
Q 1619 3391 1289 3197 
Q 959 3003 697 2906 
L 697 3450 
Q 1169 3672 1522 3987 
Q 1875 4303 2022 4600 
L 2384 4600 
L 2384 0 
z
" transform="scale(0.015625)"/>
     </defs>
     <use xlink:href="#ArialMT-31"/>
    </g>
   </g>
   <g id="text_2">
    <!-- 2 -->
    <g style="fill: #ffffff" transform="translate(54.357672 61.825858) scale(0.07 -0.07)">
     <defs>
      <path id="Arial-BoldMT-32" d="M 3238 816 
L 3238 0 
L 159 0 
Q 209 463 459 877 
Q 709 1291 1447 1975 
Q 2041 2528 2175 2725 
Q 2356 2997 2356 3263 
Q 2356 3556 2198 3714 
Q 2041 3872 1763 3872 
Q 1488 3872 1325 3706 
Q 1163 3541 1138 3156 
L 263 3244 
Q 341 3969 753 4284 
Q 1166 4600 1784 4600 
Q 2463 4600 2850 4234 
Q 3238 3869 3238 3325 
Q 3238 3016 3127 2736 
Q 3016 2456 2775 2150 
Q 2616 1947 2200 1565 
Q 1784 1184 1673 1059 
Q 1563 934 1494 816 
L 3238 816 
z
" transform="scale(0.015625)"/>
     </defs>
     <use xlink:href="#Arial-BoldMT-32"/>
    </g>
   </g>
   <g id="text_3">
    <!-- 3 -->
    <g style="fill: #ffffff" transform="translate(79.53921 61.825858) scale(0.07 -0.07)">
     <defs>
      <path id="Arial-BoldMT-33" d="M 241 1216 
L 1091 1319 
Q 1131 994 1309 822 
Q 1488 650 1741 650 
Q 2013 650 2198 856 
Q 2384 1063 2384 1413 
Q 2384 1744 2206 1937 
Q 2028 2131 1772 2131 
Q 1603 2131 1369 2066 
L 1466 2781 
Q 1822 2772 2009 2936 
Q 2197 3100 2197 3372 
Q 2197 3603 2059 3740 
Q 1922 3878 1694 3878 
Q 1469 3878 1309 3722 
Q 1150 3566 1116 3266 
L 306 3403 
Q 391 3819 561 4067 
Q 731 4316 1036 4458 
Q 1341 4600 1719 4600 
Q 2366 4600 2756 4188 
Q 3078 3850 3078 3425 
Q 3078 2822 2419 2463 
Q 2813 2378 3048 2084 
Q 3284 1791 3284 1375 
Q 3284 772 2843 347 
Q 2403 -78 1747 -78 
Q 1125 -78 715 280 
Q 306 638 241 1216 
z
" transform="scale(0.015625)"/>
     </defs>
     <use xlink:href="#Arial-BoldMT-33"/>
    </g>
   </g>
   <g id="text_4">
    <!-- 4 -->
    <g style="fill: #64748b" transform="translate(104.720749 61.820936) scale(0.07 -0.07)">
     <defs>
      <path id="ArialMT-34" d="M 2069 0 
L 2069 1097 
L 81 1097 
L 81 1613 
L 2172 4581 
L 2631 4581 
L 2631 1613 
L 3250 1613 
L 3250 1097 
L 2631 1097 
L 2631 0 
L 2069 0 
z
M 2069 1613 
L 2069 3678 
L 634 1613 
L 2069 1613 
z
" transform="scale(0.015625)"/>
     </defs>
     <use xlink:href="#ArialMT-34"/>
    </g>
   </g>
   <g id="text_5">
    <!-- 5 -->
    <g style="fill: #64748b" transform="translate(129.902287 61.820936) scale(0.07 -0.07)">
     <defs>
      <path id="ArialMT-35" d="M 266 1200 
L 856 1250 
Q 922 819 1161 601 
Q 1400 384 1738 384 
Q 2144 384 2425 690 
Q 2706 997 2706 1503 
Q 2706 1984 2436 2262 
Q 2166 2541 1728 2541 
Q 1456 2541 1237 2417 
Q 1019 2294 894 2097 
L 366 2166 
L 809 4519 
L 3088 4519 
L 3088 3981 
L 1259 3981 
L 1013 2750 
Q 1425 3038 1878 3038 
Q 2478 3038 2890 2622 
Q 3303 2206 3303 1553 
Q 3303 931 2941 478 
Q 2500 -78 1738 -78 
Q 1113 -78 717 272 
Q 322 622 266 1200 
z
" transform="scale(0.015625)"/>
     </defs>
     <use xlink:href="#ArialMT-35"/>
    </g>
   </g>
   <g id="text_6">
    <!-- 6 -->
    <g style="fill: #64748b" transform="translate(155.083826 61.820936) scale(0.07 -0.07)">
     <defs>
      <path id="ArialMT-36" d="M 3184 3459 
L 2625 3416 
Q 2550 3747 2413 3897 
Q 2184 4138 1850 4138 
Q 1581 4138 1378 3988 
Q 1113 3794 959 3422 
Q 806 3050 800 2363 
Q 1003 2672 1297 2822 
Q 1591 2972 1913 2972 
Q 2475 2972 2870 2558 
Q 3266 2144 3266 1488 
Q 3266 1056 3080 686 
Q 2894 316 2569 119 
Q 2244 -78 1831 -78 
Q 1128 -78 684 439 
Q 241 956 241 2144 
Q 241 3472 731 4075 
Q 1159 4600 1884 4600 
Q 2425 4600 2770 4297 
Q 3116 3994 3184 3459 
z
M 888 1484 
Q 888 1194 1011 928 
Q 1134 663 1356 523 
Q 1578 384 1822 384 
Q 2178 384 2434 671 
Q 2691 959 2691 1453 
Q 2691 1928 2437 2201 
Q 2184 2475 1800 2475 
Q 1419 2475 1153 2201 
Q 888 1928 888 1484 
z
" transform="scale(0.015625)"/>
     </defs>
     <use xlink:href="#ArialMT-36"/>
    </g>
   </g>
   <g id="text_7">
    <!-- 7 -->
    <g style="fill: #ffffff" transform="translate(180.265364 61.825858) scale(0.07 -0.07)">
     <defs>
      <path id="Arial-BoldMT-37" d="M 272 3703 
L 272 4519 
L 3275 4519 
L 3275 3881 
Q 2903 3516 2518 2831 
Q 2134 2147 1932 1376 
Q 1731 606 1734 0 
L 888 0 
Q 909 950 1279 1937 
Q 1650 2925 2269 3703 
L 272 3703 
z
" transform="scale(0.015625)"/>
     </defs>
     <use xlink:href="#Arial-BoldMT-37"/>
    </g>
   </g>
   <g id="text_8">
    <!-- 8 -->
    <g style="fill: #64748b" transform="translate(205.446903 61.820936) scale(0.07 -0.07)">
     <defs>
      <path id="ArialMT-38" d="M 1131 2484 
Q 781 2613 612 2850 
Q 444 3088 444 3419 
Q 444 3919 803 4259 
Q 1163 4600 1759 4600 
Q 2359 4600 2725 4251 
Q 3091 3903 3091 3403 
Q 3091 3084 2923 2848 
Q 2756 2613 2416 2484 
Q 2838 2347 3058 2040 
Q 3278 1734 3278 1309 
Q 3278 722 2862 322 
Q 2447 -78 1769 -78 
Q 1091 -78 675 323 
Q 259 725 259 1325 
Q 259 1772 486 2073 
Q 713 2375 1131 2484 
z
M 1019 3438 
Q 1019 3113 1228 2906 
Q 1438 2700 1772 2700 
Q 2097 2700 2305 2904 
Q 2513 3109 2513 3406 
Q 2513 3716 2298 3927 
Q 2084 4138 1766 4138 
Q 1444 4138 1231 3931 
Q 1019 3725 1019 3438 
z
M 838 1322 
Q 838 1081 952 856 
Q 1066 631 1291 507 
Q 1516 384 1775 384 
Q 2178 384 2440 643 
Q 2703 903 2703 1303 
Q 2703 1709 2433 1975 
Q 2163 2241 1756 2241 
Q 1359 2241 1098 1978 
Q 838 1716 838 1322 
z
" transform="scale(0.015625)"/>
     </defs>
     <use xlink:href="#ArialMT-38"/>
    </g>
   </g>
   <g id="text_9">
    <!-- 9 -->
    <g style="fill: #64748b" transform="translate(230.628441 61.820936) scale(0.07 -0.07)">
     <defs>
      <path id="ArialMT-39" d="M 350 1059 
L 891 1109 
Q 959 728 1153 556 
Q 1347 384 1650 384 
Q 1909 384 2104 503 
Q 2300 622 2425 820 
Q 2550 1019 2634 1356 
Q 2719 1694 2719 2044 
Q 2719 2081 2716 2156 
Q 2547 1888 2255 1720 
Q 1963 1553 1622 1553 
Q 1053 1553 659 1965 
Q 266 2378 266 3053 
Q 266 3750 677 4175 
Q 1088 4600 1706 4600 
Q 2153 4600 2523 4359 
Q 2894 4119 3086 3673 
Q 3278 3228 3278 2384 
Q 3278 1506 3087 986 
Q 2897 466 2520 194 
Q 2144 -78 1638 -78 
Q 1100 -78 759 220 
Q 419 519 350 1059 
z
M 2653 3081 
Q 2653 3566 2395 3850 
Q 2138 4134 1775 4134 
Q 1400 4134 1122 3828 
Q 844 3522 844 3034 
Q 844 2597 1108 2323 
Q 1372 2050 1759 2050 
Q 2150 2050 2401 2323 
Q 2653 2597 2653 3081 
z
" transform="scale(0.015625)"/>
     </defs>
     <use xlink:href="#ArialMT-39"/>
    </g>
   </g>
   <g id="text_10">
    <!-- 10 -->
    <g style="fill: #ffffff" transform="translate(253.863651 61.825858) scale(0.07 -0.07)">
     <defs>
      <path id="Arial-BoldMT-31" d="M 2519 0 
L 1641 0 
L 1641 3309 
Q 1159 2859 506 2644 
L 506 3441 
Q 850 3553 1253 3867 
Q 1656 4181 1806 4600 
L 2519 4600 
L 2519 0 
z
" transform="scale(0.015625)"/>
      <path id="Arial-BoldMT-30" d="M 1756 4600 
Q 2422 4600 2797 4125 
Q 3244 3563 3244 2259 
Q 3244 959 2794 391 
Q 2422 -78 1756 -78 
Q 1088 -78 678 436 
Q 269 950 269 2269 
Q 269 3563 719 4131 
Q 1091 4600 1756 4600 
z
M 1756 3872 
Q 1597 3872 1472 3770 
Q 1347 3669 1278 3406 
Q 1188 3066 1188 2259 
Q 1188 1453 1269 1151 
Q 1350 850 1473 750 
Q 1597 650 1756 650 
Q 1916 650 2041 751 
Q 2166 853 2234 1116 
Q 2325 1453 2325 2259 
Q 2325 3066 2244 3367 
Q 2163 3669 2039 3770 
Q 1916 3872 1756 3872 
z
" transform="scale(0.015625)"/>
     </defs>
     <use xlink:href="#Arial-BoldMT-31"/>
     <use xlink:href="#Arial-BoldMT-30" transform="translate(55.615234 0)"/>
    </g>
   </g>
   <g id="text_11">
    <!-- 11 -->
    <g style="fill: #ffffff" transform="translate(279.23769 61.825858) scale(0.07 -0.07)">
     <use xlink:href="#Arial-BoldMT-31"/>
     <use xlink:href="#Arial-BoldMT-31" transform="translate(50.115234 0)"/>
    </g>
   </g>
   <g id="text_12">
    <!-- 12 -->
    <g style="fill: #ffffff" transform="translate(304.226728 61.825858) scale(0.07 -0.07)">
     <use xlink:href="#Arial-BoldMT-31"/>
     <use xlink:href="#Arial-BoldMT-32" transform="translate(55.615234 0)"/>
    </g>
   </g>
   <g id="text_13">
    <!-- 13 -->
    <g style="fill: #ffffff" transform="translate(329.408267 61.825858) scale(0.07 -0.07)">
     <use xlink:href="#Arial-BoldMT-31"/>
     <use xlink:href="#Arial-BoldMT-33" transform="translate(55.615234 0)"/>
    </g>
   </g>
   <g id="text_14">
    <!-- 14 -->
    <g style="fill: #ffffff" transform="translate(354.589805 61.825858) scale(0.07 -0.07)">
     <defs>
      <path id="Arial-BoldMT-34" d="M 1994 0 
L 1994 922 
L 119 922 
L 119 1691 
L 2106 4600 
L 2844 4600 
L 2844 1694 
L 3413 1694 
L 3413 922 
L 2844 922 
L 2844 0 
L 1994 0 
z
M 1994 1694 
L 1994 3259 
L 941 1694 
L 1994 1694 
z
" transform="scale(0.015625)"/>
     </defs>
     <use xlink:href="#Arial-BoldMT-31"/>
     <use xlink:href="#Arial-BoldMT-34" transform="translate(55.615234 0)"/>
    </g>
   </g>
   <g id="text_15">
    <!-- 15 -->
    <g style="fill: #ffffff" transform="translate(379.771344 61.825858) scale(0.07 -0.07)">
     <defs>
      <path id="Arial-BoldMT-35" d="M 284 1178 
L 1159 1269 
Q 1197 972 1381 798 
Q 1566 625 1806 625 
Q 2081 625 2272 848 
Q 2463 1072 2463 1522 
Q 2463 1944 2273 2155 
Q 2084 2366 1781 2366 
Q 1403 2366 1103 2031 
L 391 2134 
L 841 4519 
L 3163 4519 
L 3163 3697 
L 1506 3697 
L 1369 2919 
Q 1663 3066 1969 3066 
Q 2553 3066 2959 2641 
Q 3366 2216 3366 1538 
Q 3366 972 3038 528 
Q 2591 -78 1797 -78 
Q 1163 -78 763 262 
Q 363 603 284 1178 
z
" transform="scale(0.015625)"/>
     </defs>
     <use xlink:href="#Arial-BoldMT-31"/>
     <use xlink:href="#Arial-BoldMT-35" transform="translate(55.615234 0)"/>
    </g>
   </g>
   <g id="text_16">
    <!-- 16 -->
    <g style="fill: #64748b" transform="translate(404.952882 61.820936) scale(0.07 -0.07)">
     <use xlink:href="#ArialMT-31"/>
     <use xlink:href="#ArialMT-36" transform="translate(55.615234 0)"/>
    </g>
   </g>
   <g id="text_17">
    <!-- 17 -->
    <g style="fill: #64748b" transform="translate(430.134421 61.820936) scale(0.07 -0.07)">
     <defs>
      <path id="ArialMT-37" d="M 303 3981 
L 303 4522 
L 3269 4522 
L 3269 4084 
Q 2831 3619 2401 2847 
Q 1972 2075 1738 1259 
Q 1569 684 1522 0 
L 944 0 
Q 953 541 1156 1306 
Q 1359 2072 1739 2783 
Q 2119 3494 2547 3981 
L 303 3981 
z
" transform="scale(0.015625)"/>
     </defs>
     <use xlink:href="#ArialMT-31"/>
     <use xlink:href="#ArialMT-37" transform="translate(55.615234 0)"/>
    </g>
   </g>
   <g id="text_18">
    <!-- 18 -->
    <g style="fill: #64748b" transform="translate(455.315959 61.820936) scale(0.07 -0.07)">
     <use xlink:href="#ArialMT-31"/>
     <use xlink:href="#ArialMT-38" transform="translate(55.615234 0)"/>
    </g>
   </g>
   <g id="text_19">
    <!-- 19 -->
    <g style="fill: #ffffff" transform="translate(480.497498 61.825858) scale(0.07 -0.07)">
     <defs>
      <path id="Arial-BoldMT-39" d="M 291 1059 
L 1141 1153 
Q 1172 894 1303 769 
Q 1434 644 1650 644 
Q 1922 644 2112 894 
Q 2303 1144 2356 1931 
Q 2025 1547 1528 1547 
Q 988 1547 595 1964 
Q 203 2381 203 3050 
Q 203 3747 617 4173 
Q 1031 4600 1672 4600 
Q 2369 4600 2816 4061 
Q 3263 3522 3263 2288 
Q 3263 1031 2797 475 
Q 2331 -81 1584 -81 
Q 1047 -81 715 205 
Q 384 491 291 1059 
z
M 2278 2978 
Q 2278 3403 2083 3637 
Q 1888 3872 1631 3872 
Q 1388 3872 1227 3680 
Q 1066 3488 1066 3050 
Q 1066 2606 1241 2398 
Q 1416 2191 1678 2191 
Q 1931 2191 2104 2391 
Q 2278 2591 2278 2978 
z
" transform="scale(0.015625)"/>
     </defs>
     <use xlink:href="#Arial-BoldMT-31"/>
     <use xlink:href="#Arial-BoldMT-39" transform="translate(55.615234 0)"/>
    </g>
   </g>
   <g id="text_20">
    <!-- 20 -->
    <g style="fill: #ffffff" transform="translate(505.679036 61.825858) scale(0.07 -0.07)">
     <use xlink:href="#Arial-BoldMT-32"/>
     <use xlink:href="#Arial-BoldMT-30" transform="translate(55.615234 0)"/>
    </g>
   </g>
   <g id="text_21">
    <!-- 21 -->
    <g style="fill: #64748b" transform="translate(530.860575 61.820936) scale(0.07 -0.07)">
     <defs>
      <path id="ArialMT-32" d="M 3222 541 
L 3222 0 
L 194 0 
Q 188 203 259 391 
Q 375 700 629 1000 
Q 884 1300 1366 1694 
Q 2113 2306 2375 2664 
Q 2638 3022 2638 3341 
Q 2638 3675 2398 3904 
Q 2159 4134 1775 4134 
Q 1369 4134 1125 3890 
Q 881 3647 878 3216 
L 300 3275 
Q 359 3922 746 4261 
Q 1134 4600 1788 4600 
Q 2447 4600 2831 4234 
Q 3216 3869 3216 3328 
Q 3216 3053 3103 2787 
Q 2991 2522 2730 2228 
Q 2469 1934 1863 1422 
Q 1356 997 1212 845 
Q 1069 694 975 541 
L 3222 541 
z
" transform="scale(0.015625)"/>
     </defs>
     <use xlink:href="#ArialMT-32"/>
     <use xlink:href="#ArialMT-31" transform="translate(55.615234 0)"/>
    </g>
   </g>
   <g id="text_22">
    <!-- 22 -->
    <g style="fill: #64748b" transform="translate(556.042113 61.820936) scale(0.07 -0.07)">
     <use xlink:href="#ArialMT-32"/>
     <use xlink:href="#ArialMT-32" transform="translate(55.615234 0)"/>
    </g>
   </g>
   <g id="text_23">
    <!-- 23 -->
    <g style="fill: #64748b" transform="translate(581.223651 61.820936) scale(0.07 -0.07)">
     <defs>
      <path id="ArialMT-33" d="M 269 1209 
L 831 1284 
Q 928 806 1161 595 
Q 1394 384 1728 384 
Q 2125 384 2398 659 
Q 2672 934 2672 1341 
Q 2672 1728 2419 1979 
Q 2166 2231 1775 2231 
Q 1616 2231 1378 2169 
L 1441 2663 
Q 1497 2656 1531 2656 
Q 1891 2656 2178 2843 
Q 2466 3031 2466 3422 
Q 2466 3731 2256 3934 
Q 2047 4138 1716 4138 
Q 1388 4138 1169 3931 
Q 950 3725 888 3313 
L 325 3413 
Q 428 3978 793 4289 
Q 1159 4600 1703 4600 
Q 2078 4600 2393 4439 
Q 2709 4278 2876 4000 
Q 3044 3722 3044 3409 
Q 3044 3113 2884 2869 
Q 2725 2625 2413 2481 
Q 2819 2388 3044 2092 
Q 3269 1797 3269 1353 
Q 3269 753 2831 336 
Q 2394 -81 1725 -81 
Q 1122 -81 723 278 
Q 325 638 269 1209 
z
" transform="scale(0.015625)"/>
     </defs>
     <use xlink:href="#ArialMT-32"/>
     <use xlink:href="#ArialMT-33" transform="translate(55.615234 0)"/>
    </g>
   </g>
   <g id="text_24">
    <!-- 24 -->
    <g style="fill: #64748b" transform="translate(606.40519 61.820936) scale(0.07 -0.07)">
     <use xlink:href="#ArialMT-32"/>
     <use xlink:href="#ArialMT-34" transform="translate(55.615234 0)"/>
    </g>
   </g>
   <g id="text_25">
    <!-- 25 -->
    <g style="fill: #64748b" transform="translate(631.586728 61.820936) scale(0.07 -0.07)">
     <use xlink:href="#ArialMT-32"/>
     <use xlink:href="#ArialMT-35" transform="translate(55.615234 0)"/>
    </g>
   </g>
   <g id="text_26">
    <!-- 26 -->
    <g style="fill: #ffffff" transform="translate(656.768267 61.825858) scale(0.07 -0.07)">
     <defs>
      <path id="Arial-BoldMT-36" d="M 3247 3459 
L 2397 3366 
Q 2366 3628 2234 3753 
Q 2103 3878 1894 3878 
Q 1616 3878 1423 3628 
Q 1231 3378 1181 2588 
Q 1509 2975 1997 2975 
Q 2547 2975 2939 2556 
Q 3331 2138 3331 1475 
Q 3331 772 2918 347 
Q 2506 -78 1859 -78 
Q 1166 -78 719 461 
Q 272 1000 272 2228 
Q 272 3488 737 4044 
Q 1203 4600 1947 4600 
Q 2469 4600 2811 4308 
Q 3153 4016 3247 3459 
z
M 1256 1544 
Q 1256 1116 1453 883 
Q 1650 650 1903 650 
Q 2147 650 2309 840 
Q 2472 1031 2472 1466 
Q 2472 1913 2297 2120 
Q 2122 2328 1859 2328 
Q 1606 2328 1431 2129 
Q 1256 1931 1256 1544 
z
" transform="scale(0.015625)"/>
     </defs>
     <use xlink:href="#Arial-BoldMT-32"/>
     <use xlink:href="#Arial-BoldMT-36" transform="translate(55.615234 0)"/>
    </g>
   </g>
   <g id="text_27">
    <!-- 27 -->
    <g style="fill: #ffffff" transform="translate(681.949805 61.825858) scale(0.07 -0.07)">
     <use xlink:href="#Arial-BoldMT-32"/>
     <use xlink:href="#Arial-BoldMT-37" transform="translate(55.615234 0)"/>
    </g>
   </g>
   <g id="text_28">
    <!-- 28 -->
    <g style="fill: #ffffff" transform="translate(707.131344 61.825858) scale(0.07 -0.07)">
     <defs>
      <path id="Arial-BoldMT-38" d="M 1025 2472 
Q 684 2616 529 2867 
Q 375 3119 375 3419 
Q 375 3931 733 4265 
Q 1091 4600 1750 4600 
Q 2403 4600 2764 4265 
Q 3125 3931 3125 3419 
Q 3125 3100 2959 2851 
Q 2794 2603 2494 2472 
Q 2875 2319 3073 2025 
Q 3272 1731 3272 1347 
Q 3272 713 2867 316 
Q 2463 -81 1791 -81 
Q 1166 -81 750 247 
Q 259 634 259 1309 
Q 259 1681 443 1992 
Q 628 2303 1025 2472 
z
M 1206 3356 
Q 1206 3094 1354 2947 
Q 1503 2800 1750 2800 
Q 2000 2800 2150 2948 
Q 2300 3097 2300 3359 
Q 2300 3606 2151 3754 
Q 2003 3903 1759 3903 
Q 1506 3903 1356 3753 
Q 1206 3603 1206 3356 
z
M 1125 1394 
Q 1125 1031 1311 828 
Q 1497 625 1775 625 
Q 2047 625 2225 820 
Q 2403 1016 2403 1384 
Q 2403 1706 2222 1901 
Q 2041 2097 1763 2097 
Q 1441 2097 1283 1875 
Q 1125 1653 1125 1394 
z
" transform="scale(0.015625)"/>
     </defs>
     <use xlink:href="#Arial-BoldMT-32"/>
     <use xlink:href="#Arial-BoldMT-38" transform="translate(55.615234 0)"/>
    </g>
   </g>
   <g id="text_29">
    <!-- 29 -->
    <g style="fill: #ffffff" transform="translate(732.312882 61.825858) scale(0.07 -0.07)">
     <use xlink:href="#Arial-BoldMT-32"/>
     <use xlink:href="#Arial-BoldMT-39" transform="translate(55.615234 0)"/>
    </g>
   </g>
   <g id="text_30">
    <!-- 30 -->
    <g style="fill: #ffffff" transform="translate(757.494421 61.825858) scale(0.07 -0.07)">
     <use xlink:href="#Arial-BoldMT-33"/>
     <use xlink:href="#Arial-BoldMT-30" transform="translate(55.615234 0)"/>
    </g>
   </g>
   <g id="text_31">
    <!-- 31 -->
    <g style="fill: #ffffff" transform="translate(782.675959 61.825858) scale(0.07 -0.07)">
     <use xlink:href="#Arial-BoldMT-33"/>
     <use xlink:href="#Arial-BoldMT-31" transform="translate(55.615234 0)"/>
    </g>
   </g>
   <g id="text_32">
    <!-- 32 -->
    <g style="fill: #ffffff" transform="translate(807.857498 61.825858) scale(0.07 -0.07)">
     <use xlink:href="#Arial-BoldMT-33"/>
     <use xlink:href="#Arial-BoldMT-32" transform="translate(55.615234 0)"/>
    </g>
   </g>
   <g id="text_33">
    <!-- 33 -->
    <g style="fill: #64748b" transform="translate(833.039036 61.820936) scale(0.07 -0.07)">
     <use xlink:href="#ArialMT-33"/>
     <use xlink:href="#ArialMT-33" transform="translate(55.615234 0)"/>
    </g>
   </g>
   <g id="text_34">
    <!-- 34 -->
    <g style="fill: #64748b" transform="translate(858.220575 61.820936) scale(0.07 -0.07)">
     <use xlink:href="#ArialMT-33"/>
     <use xlink:href="#ArialMT-34" transform="translate(55.615234 0)"/>
    </g>
   </g>
   <g id="text_35">
    <!-- 35 -->
    <g style="fill: #64748b" transform="translate(883.402113 61.820936) scale(0.07 -0.07)">
     <use xlink:href="#ArialMT-33"/>
     <use xlink:href="#ArialMT-35" transform="translate(55.615234 0)"/>
    </g>
   </g>
   <g id="text_36">
    <!-- 36 -->
    <g style="fill: #ffffff" transform="translate(908.583651 61.825858) scale(0.07 -0.07)">
     <use xlink:href="#Arial-BoldMT-33"/>
     <use xlink:href="#Arial-BoldMT-36" transform="translate(55.615234 0)"/>
    </g>
   </g>
   <g id="text_37">
    <!-- 37 -->
    <g style="fill: #64748b" transform="translate(933.76519 61.820936) scale(0.07 -0.07)">
     <use xlink:href="#ArialMT-33"/>
     <use xlink:href="#ArialMT-37" transform="translate(55.615234 0)"/>
    </g>
   </g>
   <g id="text_38">
    <!-- 38 -->
    <g style="fill: #ffffff" transform="translate(958.946728 61.825858) scale(0.07 -0.07)">
     <use xlink:href="#Arial-BoldMT-33"/>
     <use xlink:href="#Arial-BoldMT-38" transform="translate(55.615234 0)"/>
    </g>
   </g>
   <g id="text_39">
    <!-- 39 -->
    <g style="fill: #64748b" transform="translate(27.229805 92.038782) scale(0.07 -0.07)">
     <use xlink:href="#ArialMT-33"/>
     <use xlink:href="#ArialMT-39" transform="translate(55.615234 0)"/>
    </g>
   </g>
   <g id="text_40">
    <!-- 40 -->
    <g style="fill: #ffffff" transform="translate(52.411344 92.043704) scale(0.07 -0.07)">
     <use xlink:href="#Arial-BoldMT-34"/>
     <use xlink:href="#Arial-BoldMT-30" transform="translate(55.615234 0)"/>
    </g>
   </g>
   <g id="text_41">
    <!-- 41 -->
    <g style="fill: #ffffff" transform="translate(77.592882 92.043704) scale(0.07 -0.07)">
     <use xlink:href="#Arial-BoldMT-34"/>
     <use xlink:href="#Arial-BoldMT-31" transform="translate(55.615234 0)"/>
    </g>
   </g>
   <g id="text_42">
    <!-- 42 -->
    <g style="fill: #ffffff" transform="translate(102.774421 92.043704) scale(0.07 -0.07)">
     <use xlink:href="#Arial-BoldMT-34"/>
     <use xlink:href="#Arial-BoldMT-32" transform="translate(55.615234 0)"/>
    </g>
   </g>
   <g id="text_43">
    <!-- 43 -->
    <g style="fill: #ffffff" transform="translate(127.955959 92.043704) scale(0.07 -0.07)">
     <use xlink:href="#Arial-BoldMT-34"/>
     <use xlink:href="#Arial-BoldMT-33" transform="translate(55.615234 0)"/>
    </g>
   </g>
   <g id="text_44">
    <!-- 44 -->
    <g style="fill: #ffffff" transform="translate(153.137498 92.043704) scale(0.07 -0.07)">
     <use xlink:href="#Arial-BoldMT-34"/>
     <use xlink:href="#Arial-BoldMT-34" transform="translate(55.615234 0)"/>
    </g>
   </g>
   <g id="text_45">
    <!-- 45 -->
    <g style="fill: #ffffff" transform="translate(178.319036 92.043704) scale(0.07 -0.07)">
     <use xlink:href="#Arial-BoldMT-34"/>
     <use xlink:href="#Arial-BoldMT-35" transform="translate(55.615234 0)"/>
    </g>
   </g>
   <g id="text_46">
    <!-- 46 -->
    <g style="fill: #ffffff" transform="translate(203.500575 92.043704) scale(0.07 -0.07)">
     <use xlink:href="#Arial-BoldMT-34"/>
     <use xlink:href="#Arial-BoldMT-36" transform="translate(55.615234 0)"/>
    </g>
   </g>
   <g id="text_47">
    <!-- 47 -->
    <g style="fill: #64748b" transform="translate(228.682113 92.038782) scale(0.07 -0.07)">
     <use xlink:href="#ArialMT-34"/>
     <use xlink:href="#ArialMT-37" transform="translate(55.615234 0)"/>
    </g>
   </g>
   <g id="text_48">
    <!-- 48 -->
    <g style="fill: #64748b" transform="translate(253.863651 92.038782) scale(0.07 -0.07)">
     <use xlink:href="#ArialMT-34"/>
     <use xlink:href="#ArialMT-38" transform="translate(55.615234 0)"/>
    </g>
   </g>
   <g id="text_49">
    <!-- 49 -->
    <g style="fill: #64748b" transform="translate(279.04519 92.038782) scale(0.07 -0.07)">
     <use xlink:href="#ArialMT-34"/>
     <use xlink:href="#ArialMT-39" transform="translate(55.615234 0)"/>
    </g>
   </g>
   <g id="text_50">
    <!-- 50 -->
    <g style="fill: #ffffff" transform="translate(304.226728 92.043704) scale(0.07 -0.07)">
     <use xlink:href="#Arial-BoldMT-35"/>
     <use xlink:href="#Arial-BoldMT-30" transform="translate(55.615234 0)"/>
    </g>
   </g>
   <g id="text_51">
    <!-- 51 -->
    <g style="fill: #64748b" transform="translate(329.408267 92.038782) scale(0.07 -0.07)">
     <use xlink:href="#ArialMT-35"/>
     <use xlink:href="#ArialMT-31" transform="translate(55.615234 0)"/>
    </g>
   </g>
   <g id="text_52">
    <!-- 52 -->
    <g style="fill: #64748b" transform="translate(354.589805 92.038782) scale(0.07 -0.07)">
     <use xlink:href="#ArialMT-35"/>
     <use xlink:href="#ArialMT-32" transform="translate(55.615234 0)"/>
    </g>
   </g>
   <g id="text_53">
    <!-- 53 -->
    <g style="fill: #64748b" transform="translate(379.771344 92.038782) scale(0.07 -0.07)">
     <use xlink:href="#ArialMT-35"/>
     <use xlink:href="#ArialMT-33" transform="translate(55.615234 0)"/>
    </g>
   </g>
   <g id="text_54">
    <!-- 54 -->
    <g style="fill: #64748b" transform="translate(404.952882 92.038782) scale(0.07 -0.07)">
     <use xlink:href="#ArialMT-35"/>
     <use xlink:href="#ArialMT-34" transform="translate(55.615234 0)"/>
    </g>
   </g>
   <g id="text_55">
    <!-- 55 -->
    <g style="fill: #64748b" transform="translate(430.134421 92.038782) scale(0.07 -0.07)">
     <use xlink:href="#ArialMT-35"/>
     <use xlink:href="#ArialMT-35" transform="translate(55.615234 0)"/>
    </g>
   </g>
   <g id="text_56">
    <!-- 56 -->
    <g style="fill: #64748b" transform="translate(455.315959 92.038782) scale(0.07 -0.07)">
     <use xlink:href="#ArialMT-35"/>
     <use xlink:href="#ArialMT-36" transform="translate(55.615234 0)"/>
    </g>
   </g>
   <g id="text_57">
    <!-- 57 -->
    <g style="fill: #64748b" transform="translate(480.497498 92.038782) scale(0.07 -0.07)">
     <use xlink:href="#ArialMT-35"/>
     <use xlink:href="#ArialMT-37" transform="translate(55.615234 0)"/>
    </g>
   </g>
   <g id="text_58">
    <!-- 58 -->
    <g style="fill: #64748b" transform="translate(505.679036 92.038782) scale(0.07 -0.07)">
     <use xlink:href="#ArialMT-35"/>
     <use xlink:href="#ArialMT-38" transform="translate(55.615234 0)"/>
    </g>
   </g>
   <g id="text_59">
    <!-- 59 -->
    <g style="fill: #64748b" transform="translate(530.860575 92.038782) scale(0.07 -0.07)">
     <use xlink:href="#ArialMT-35"/>
     <use xlink:href="#ArialMT-39" transform="translate(55.615234 0)"/>
    </g>
   </g>
   <g id="text_60">
    <!-- 60 -->
    <g style="fill: #64748b" transform="translate(556.042113 92.038782) scale(0.07 -0.07)">
     <defs>
      <path id="ArialMT-30" d="M 266 2259 
Q 266 3072 433 3567 
Q 600 4063 929 4331 
Q 1259 4600 1759 4600 
Q 2128 4600 2406 4451 
Q 2684 4303 2865 4023 
Q 3047 3744 3150 3342 
Q 3253 2941 3253 2259 
Q 3253 1453 3087 958 
Q 2922 463 2592 192 
Q 2263 -78 1759 -78 
Q 1097 -78 719 397 
Q 266 969 266 2259 
z
M 844 2259 
Q 844 1131 1108 757 
Q 1372 384 1759 384 
Q 2147 384 2411 759 
Q 2675 1134 2675 2259 
Q 2675 3391 2411 3762 
Q 2147 4134 1753 4134 
Q 1366 4134 1134 3806 
Q 844 3388 844 2259 
z
" transform="scale(0.015625)"/>
     </defs>
     <use xlink:href="#ArialMT-36"/>
     <use xlink:href="#ArialMT-30" transform="translate(55.615234 0)"/>
    </g>
   </g>
   <g id="text_61">
    <!-- 61 -->
    <g style="fill: #64748b" transform="translate(581.223651 92.038782) scale(0.07 -0.07)">
     <use xlink:href="#ArialMT-36"/>
     <use xlink:href="#ArialMT-31" transform="translate(55.615234 0)"/>
    </g>
   </g>
   <g id="text_62">
    <!-- 62 -->
    <g style="fill: #64748b" transform="translate(606.40519 92.038782) scale(0.07 -0.07)">
     <use xlink:href="#ArialMT-36"/>
     <use xlink:href="#ArialMT-32" transform="translate(55.615234 0)"/>
    </g>
   </g>
   <g id="text_63">
    <!-- 63 -->
    <g style="fill: #64748b" transform="translate(631.586728 92.038782) scale(0.07 -0.07)">
     <use xlink:href="#ArialMT-36"/>
     <use xlink:href="#ArialMT-33" transform="translate(55.615234 0)"/>
    </g>
   </g>
   <g id="text_64">
    <!-- 64 -->
    <g style="fill: #64748b" transform="translate(656.768267 92.038782) scale(0.07 -0.07)">
     <use xlink:href="#ArialMT-36"/>
     <use xlink:href="#ArialMT-34" transform="translate(55.615234 0)"/>
    </g>
   </g>
   <g id="text_65">
    <!-- 65 -->
    <g style="fill: #64748b" transform="translate(681.949805 92.038782) scale(0.07 -0.07)">
     <use xlink:href="#ArialMT-36"/>
     <use xlink:href="#ArialMT-35" transform="translate(55.615234 0)"/>
    </g>
   </g>
   <g id="text_66">
    <!-- 66 -->
    <g style="fill: #64748b" transform="translate(707.131344 92.038782) scale(0.07 -0.07)">
     <use xlink:href="#ArialMT-36"/>
     <use xlink:href="#ArialMT-36" transform="translate(55.615234 0)"/>
    </g>
   </g>
   <g id="text_67">
    <!-- 67 -->
    <g style="fill: #64748b" transform="translate(732.312882 92.038782) scale(0.07 -0.07)">
     <use xlink:href="#ArialMT-36"/>
     <use xlink:href="#ArialMT-37" transform="translate(55.615234 0)"/>
    </g>
   </g>
   <g id="text_68">
    <!-- 68 -->
    <g style="fill: #ffffff" transform="translate(757.494421 92.043704) scale(0.07 -0.07)">
     <use xlink:href="#Arial-BoldMT-36"/>
     <use xlink:href="#Arial-BoldMT-38" transform="translate(55.615234 0)"/>
    </g>
   </g>
   <g id="text_69">
    <!-- 69 -->
    <g style="fill: #64748b" transform="translate(782.675959 92.038782) scale(0.07 -0.07)">
     <use xlink:href="#ArialMT-36"/>
     <use xlink:href="#ArialMT-39" transform="translate(55.615234 0)"/>
    </g>
   </g>
   <g id="text_70">
    <!-- 70 -->
    <g style="fill: #64748b" transform="translate(807.857498 92.038782) scale(0.07 -0.07)">
     <use xlink:href="#ArialMT-37"/>
     <use xlink:href="#ArialMT-30" transform="translate(55.615234 0)"/>
    </g>
   </g>
   <g id="text_71">
    <!-- 71 -->
    <g style="fill: #64748b" transform="translate(833.039036 92.038782) scale(0.07 -0.07)">
     <use xlink:href="#ArialMT-37"/>
     <use xlink:href="#ArialMT-31" transform="translate(55.615234 0)"/>
    </g>
   </g>
   <g id="text_72">
    <!-- 72 -->
    <g style="fill: #64748b" transform="translate(858.220575 92.038782) scale(0.07 -0.07)">
     <use xlink:href="#ArialMT-37"/>
     <use xlink:href="#ArialMT-32" transform="translate(55.615234 0)"/>
    </g>
   </g>
   <g id="text_73">
    <!-- 73 -->
    <g style="fill: #64748b" transform="translate(883.402113 92.038782) scale(0.07 -0.07)">
     <use xlink:href="#ArialMT-37"/>
     <use xlink:href="#ArialMT-33" transform="translate(55.615234 0)"/>
    </g>
   </g>
   <g id="text_74">
    <!-- 74 -->
    <g style="fill: #64748b" transform="translate(908.583651 92.038782) scale(0.07 -0.07)">
     <use xlink:href="#ArialMT-37"/>
     <use xlink:href="#ArialMT-34" transform="translate(55.615234 0)"/>
    </g>
   </g>
   <g id="text_75">
    <!-- 75 -->
    <g style="fill: #64748b" transform="translate(933.76519 92.038782) scale(0.07 -0.07)">
     <use xlink:href="#ArialMT-37"/>
     <use xlink:href="#ArialMT-35" transform="translate(55.615234 0)"/>
    </g>
   </g>
   <g id="text_76">
    <!-- 76 -->
    <g style="fill: #64748b" transform="translate(958.946728 92.038782) scale(0.07 -0.07)">
     <use xlink:href="#ArialMT-37"/>
     <use xlink:href="#ArialMT-36" transform="translate(55.615234 0)"/>
    </g>
   </g>
   <g id="text_77">
    <!-- 77 -->
    <g style="fill: #64748b" transform="translate(27.229805 122.256629) scale(0.07 -0.07)">
     <use xlink:href="#ArialMT-37"/>
     <use xlink:href="#ArialMT-37" transform="translate(55.615234 0)"/>
    </g>
   </g>
   <g id="text_78">
    <!-- 78 -->
    <g style="fill: #64748b" transform="translate(52.411344 122.256629) scale(0.07 -0.07)">
     <use xlink:href="#ArialMT-37"/>
     <use xlink:href="#ArialMT-38" transform="translate(55.615234 0)"/>
    </g>
   </g>
   <g id="text_79">
    <!-- 79 -->
    <g style="fill: #64748b" transform="translate(77.592882 122.256629) scale(0.07 -0.07)">
     <use xlink:href="#ArialMT-37"/>
     <use xlink:href="#ArialMT-39" transform="translate(55.615234 0)"/>
    </g>
   </g>
   <g id="text_80">
    <!-- 80 -->
    <g style="fill: #64748b" transform="translate(102.774421 122.256629) scale(0.07 -0.07)">
     <use xlink:href="#ArialMT-38"/>
     <use xlink:href="#ArialMT-30" transform="translate(55.615234 0)"/>
    </g>
   </g>
   <g id="text_81">
    <!-- 81 -->
    <g style="fill: #64748b" transform="translate(127.955959 122.256629) scale(0.07 -0.07)">
     <use xlink:href="#ArialMT-38"/>
     <use xlink:href="#ArialMT-31" transform="translate(55.615234 0)"/>
    </g>
   </g>
   <g id="text_82">
    <!-- 82 -->
    <g style="fill: #64748b" transform="translate(153.137498 122.256629) scale(0.07 -0.07)">
     <use xlink:href="#ArialMT-38"/>
     <use xlink:href="#ArialMT-32" transform="translate(55.615234 0)"/>
    </g>
   </g>
   <g id="text_83">
    <!-- 83 -->
    <g style="fill: #64748b" transform="translate(178.319036 122.256629) scale(0.07 -0.07)">
     <use xlink:href="#ArialMT-38"/>
     <use xlink:href="#ArialMT-33" transform="translate(55.615234 0)"/>
    </g>
   </g>
   <g id="text_84">
    <!-- 84 -->
    <g style="fill: #64748b" transform="translate(203.500575 122.256629) scale(0.07 -0.07)">
     <use xlink:href="#ArialMT-38"/>
     <use xlink:href="#ArialMT-34" transform="translate(55.615234 0)"/>
    </g>
   </g>
   <g id="text_85">
    <!-- 85 -->
    <g style="fill: #64748b" transform="translate(228.682113 122.256629) scale(0.07 -0.07)">
     <use xlink:href="#ArialMT-38"/>
     <use xlink:href="#ArialMT-35" transform="translate(55.615234 0)"/>
    </g>
   </g>
   <g id="text_86">
    <!-- 86 -->
    <g style="fill: #64748b" transform="translate(253.863651 122.256629) scale(0.07 -0.07)">
     <use xlink:href="#ArialMT-38"/>
     <use xlink:href="#ArialMT-36" transform="translate(55.615234 0)"/>
    </g>
   </g>
   <g id="text_87">
    <!-- 87 -->
    <g style="fill: #64748b" transform="translate(279.04519 122.256629) scale(0.07 -0.07)">
     <use xlink:href="#ArialMT-38"/>
     <use xlink:href="#ArialMT-37" transform="translate(55.615234 0)"/>
    </g>
   </g>
   <g id="text_88">
    <!-- 88 -->
    <g style="fill: #64748b" transform="translate(304.226728 122.256629) scale(0.07 -0.07)">
     <use xlink:href="#ArialMT-38"/>
     <use xlink:href="#ArialMT-38" transform="translate(55.615234 0)"/>
    </g>
   </g>
   <g id="text_89">
    <!-- 89 -->
    <g style="fill: #64748b" transform="translate(329.408267 122.256629) scale(0.07 -0.07)">
     <use xlink:href="#ArialMT-38"/>
     <use xlink:href="#ArialMT-39" transform="translate(55.615234 0)"/>
    </g>
   </g>
   <g id="text_90">
    <!-- 90 -->
    <g style="fill: #64748b" transform="translate(354.589805 122.256629) scale(0.07 -0.07)">
     <use xlink:href="#ArialMT-39"/>
     <use xlink:href="#ArialMT-30" transform="translate(55.615234 0)"/>
    </g>
   </g>
   <g id="text_91">
    <!-- 91 -->
    <g style="fill: #64748b" transform="translate(379.771344 122.256629) scale(0.07 -0.07)">
     <use xlink:href="#ArialMT-39"/>
     <use xlink:href="#ArialMT-31" transform="translate(55.615234 0)"/>
    </g>
   </g>
   <g id="text_92">
    <!-- 92 -->
    <g style="fill: #64748b" transform="translate(404.952882 122.256629) scale(0.07 -0.07)">
     <use xlink:href="#ArialMT-39"/>
     <use xlink:href="#ArialMT-32" transform="translate(55.615234 0)"/>
    </g>
   </g>
   <g id="text_93">
    <!-- 93 -->
    <g style="fill: #64748b" transform="translate(430.134421 122.256629) scale(0.07 -0.07)">
     <use xlink:href="#ArialMT-39"/>
     <use xlink:href="#ArialMT-33" transform="translate(55.615234 0)"/>
    </g>
   </g>
   <g id="text_94">
    <!-- 94 -->
    <g style="fill: #64748b" transform="translate(455.315959 122.256629) scale(0.07 -0.07)">
     <use xlink:href="#ArialMT-39"/>
     <use xlink:href="#ArialMT-34" transform="translate(55.615234 0)"/>
    </g>
   </g>
   <g id="text_95">
    <!-- 95 -->
    <g style="fill: #64748b" transform="translate(480.497498 122.256629) scale(0.07 -0.07)">
     <use xlink:href="#ArialMT-39"/>
     <use xlink:href="#ArialMT-35" transform="translate(55.615234 0)"/>
    </g>
   </g>
   <g id="text_96">
    <!-- 96 -->
    <g style="fill: #64748b" transform="translate(505.679036 122.256629) scale(0.07 -0.07)">
     <use xlink:href="#ArialMT-39"/>
     <use xlink:href="#ArialMT-36" transform="translate(55.615234 0)"/>
    </g>
   </g>
   <g id="text_97">
    <!-- 97 -->
    <g style="fill: #64748b" transform="translate(530.860575 122.256629) scale(0.07 -0.07)">
     <use xlink:href="#ArialMT-39"/>
     <use xlink:href="#ArialMT-37" transform="translate(55.615234 0)"/>
    </g>
   </g>
   <g id="text_98">
    <!-- 98 -->
    <g style="fill: #64748b" transform="translate(556.042113 122.256629) scale(0.07 -0.07)">
     <use xlink:href="#ArialMT-39"/>
     <use xlink:href="#ArialMT-38" transform="translate(55.615234 0)"/>
    </g>
   </g>
   <g id="text_99">
    <!-- 99 -->
    <g style="fill: #64748b" transform="translate(581.223651 122.256629) scale(0.07 -0.07)">
     <use xlink:href="#ArialMT-39"/>
     <use xlink:href="#ArialMT-39" transform="translate(55.615234 0)"/>
    </g>
   </g>
   <g id="text_100">
    <!-- 100 -->
    <g style="fill: #64748b" transform="translate(604.458862 122.256629) scale(0.07 -0.07)">
     <use xlink:href="#ArialMT-31"/>
     <use xlink:href="#ArialMT-30" transform="translate(55.615234 0)"/>
     <use xlink:href="#ArialMT-30" transform="translate(111.230469 0)"/>
    </g>
   </g>
   <g id="text_101">
    <!-- 101 -->
    <g style="fill: #64748b" transform="translate(629.6404 122.256629) scale(0.07 -0.07)">
     <use xlink:href="#ArialMT-31"/>
     <use xlink:href="#ArialMT-30" transform="translate(55.615234 0)"/>
     <use xlink:href="#ArialMT-31" transform="translate(111.230469 0)"/>
    </g>
   </g>
   <g id="text_102">
    <!-- 102 -->
    <g style="fill: #64748b" transform="translate(654.821939 122.256629) scale(0.07 -0.07)">
     <use xlink:href="#ArialMT-31"/>
     <use xlink:href="#ArialMT-30" transform="translate(55.615234 0)"/>
     <use xlink:href="#ArialMT-32" transform="translate(111.230469 0)"/>
    </g>
   </g>
   <g id="text_103">
    <!-- 103 -->
    <g style="fill: #64748b" transform="translate(680.003477 122.256629) scale(0.07 -0.07)">
     <use xlink:href="#ArialMT-31"/>
     <use xlink:href="#ArialMT-30" transform="translate(55.615234 0)"/>
     <use xlink:href="#ArialMT-33" transform="translate(111.230469 0)"/>
    </g>
   </g>
   <g id="text_104">
    <!-- 104 -->
    <g style="fill: #64748b" transform="translate(705.185016 122.256629) scale(0.07 -0.07)">
     <use xlink:href="#ArialMT-31"/>
     <use xlink:href="#ArialMT-30" transform="translate(55.615234 0)"/>
     <use xlink:href="#ArialMT-34" transform="translate(111.230469 0)"/>
    </g>
   </g>
   <g id="text_105">
    <!-- 105 -->
    <g style="fill: #64748b" transform="translate(730.366554 122.256629) scale(0.07 -0.07)">
     <use xlink:href="#ArialMT-31"/>
     <use xlink:href="#ArialMT-30" transform="translate(55.615234 0)"/>
     <use xlink:href="#ArialMT-35" transform="translate(111.230469 0)"/>
    </g>
   </g>
   <g id="text_106">
    <!-- 106 -->
    <g style="fill: #64748b" transform="translate(755.548093 122.256629) scale(0.07 -0.07)">
     <use xlink:href="#ArialMT-31"/>
     <use xlink:href="#ArialMT-30" transform="translate(55.615234 0)"/>
     <use xlink:href="#ArialMT-36" transform="translate(111.230469 0)"/>
    </g>
   </g>
   <g id="text_107">
    <!-- 107 -->
    <g style="fill: #64748b" transform="translate(780.729631 122.256629) scale(0.07 -0.07)">
     <use xlink:href="#ArialMT-31"/>
     <use xlink:href="#ArialMT-30" transform="translate(55.615234 0)"/>
     <use xlink:href="#ArialMT-37" transform="translate(111.230469 0)"/>
    </g>
   </g>
   <g id="text_108">
    <!-- 108 -->
    <g style="fill: #64748b" transform="translate(805.911169 122.256629) scale(0.07 -0.07)">
     <use xlink:href="#ArialMT-31"/>
     <use xlink:href="#ArialMT-30" transform="translate(55.615234 0)"/>
     <use xlink:href="#ArialMT-38" transform="translate(111.230469 0)"/>
    </g>
   </g>
   <g id="text_109">
    <!-- 109 -->
    <g style="fill: #64748b" transform="translate(831.092708 122.256629) scale(0.07 -0.07)">
     <use xlink:href="#ArialMT-31"/>
     <use xlink:href="#ArialMT-30" transform="translate(55.615234 0)"/>
     <use xlink:href="#ArialMT-39" transform="translate(111.230469 0)"/>
    </g>
   </g>
   <g id="text_110">
    <!-- 110 -->
    <g style="fill: #64748b" transform="translate(856.532371 122.256629) scale(0.07 -0.07)">
     <use xlink:href="#ArialMT-31"/>
     <use xlink:href="#ArialMT-31" transform="translate(48.240234 0)"/>
     <use xlink:href="#ArialMT-30" transform="translate(103.855469 0)"/>
    </g>
   </g>
   <g id="text_111">
    <!-- 111 -->
    <g style="fill: #64748b" transform="translate(881.972035 122.256629) scale(0.07 -0.07)">
     <use xlink:href="#ArialMT-31"/>
     <use xlink:href="#ArialMT-31" transform="translate(48.240234 0)"/>
     <use xlink:href="#ArialMT-31" transform="translate(96.480469 0)"/>
    </g>
   </g>
   <g id="text_112">
    <!-- 112 -->
    <g style="fill: #64748b" transform="translate(906.895448 122.256629) scale(0.07 -0.07)">
     <use xlink:href="#ArialMT-31"/>
     <use xlink:href="#ArialMT-31" transform="translate(48.240234 0)"/>
     <use xlink:href="#ArialMT-32" transform="translate(103.855469 0)"/>
    </g>
   </g>
   <g id="text_113">
    <!-- 113 -->
    <g style="fill: #64748b" transform="translate(932.076987 122.256629) scale(0.07 -0.07)">
     <use xlink:href="#ArialMT-31"/>
     <use xlink:href="#ArialMT-31" transform="translate(48.240234 0)"/>
     <use xlink:href="#ArialMT-33" transform="translate(103.855469 0)"/>
    </g>
   </g>
   <g id="text_114">
    <!-- 114 -->
    <g style="fill: #64748b" transform="translate(957.258525 122.256629) scale(0.07 -0.07)">
     <use xlink:href="#ArialMT-31"/>
     <use xlink:href="#ArialMT-31" transform="translate(48.240234 0)"/>
     <use xlink:href="#ArialMT-34" transform="translate(103.855469 0)"/>
    </g>
   </g>
   <g id="text_115">
    <!-- Muqattaat Codes Across 114 Surahs -->
    <g style="fill: #262626" transform="translate(377.523906 17.391562) scale(0.14 -0.14)">
     <defs>
      <path id="Arial-BoldMT-4d" d="M 453 0 
L 453 4581 
L 1838 4581 
L 2669 1456 
L 3491 4581 
L 4878 4581 
L 4878 0 
L 4019 0 
L 4019 3606 
L 3109 0 
L 2219 0 
L 1313 3606 
L 1313 0 
L 453 0 
z
" transform="scale(0.015625)"/>
      <path id="Arial-BoldMT-75" d="M 2644 0 
L 2644 497 
Q 2463 231 2167 78 
Q 1872 -75 1544 -75 
Q 1209 -75 943 72 
Q 678 219 559 484 
Q 441 750 441 1219 
L 441 3319 
L 1319 3319 
L 1319 1794 
Q 1319 1094 1367 936 
Q 1416 778 1544 686 
Q 1672 594 1869 594 
Q 2094 594 2272 717 
Q 2450 841 2515 1023 
Q 2581 1206 2581 1919 
L 2581 3319 
L 3459 3319 
L 3459 0 
L 2644 0 
z
" transform="scale(0.015625)"/>
      <path id="Arial-BoldMT-71" d="M 2628 -1263 
L 2628 406 
Q 2456 184 2200 54 
Q 1944 -75 1647 -75 
Q 1081 -75 716 350 
Q 284 847 284 1697 
Q 284 2497 689 2945 
Q 1094 3394 1694 3394 
Q 2025 3394 2267 3253 
Q 2509 3113 2697 2828 
L 2697 3319 
L 3506 3319 
L 3506 -1263 
L 2628 -1263 
z
M 2656 1700 
Q 2656 2209 2448 2457 
Q 2241 2706 1928 2706 
Q 1609 2706 1395 2453 
Q 1181 2200 1181 1650 
Q 1181 1103 1387 861 
Q 1594 619 1897 619 
Q 2200 619 2428 891 
Q 2656 1163 2656 1700 
z
" transform="scale(0.015625)"/>
      <path id="Arial-BoldMT-61" d="M 1116 2306 
L 319 2450 
Q 453 2931 781 3162 
Q 1109 3394 1756 3394 
Q 2344 3394 2631 3255 
Q 2919 3116 3036 2902 
Q 3153 2688 3153 2116 
L 3144 1091 
Q 3144 653 3186 445 
Q 3228 238 3344 0 
L 2475 0 
Q 2441 88 2391 259 
Q 2369 338 2359 363 
Q 2134 144 1878 34 
Q 1622 -75 1331 -75 
Q 819 -75 523 203 
Q 228 481 228 906 
Q 228 1188 362 1408 
Q 497 1628 739 1745 
Q 981 1863 1438 1950 
Q 2053 2066 2291 2166 
L 2291 2253 
Q 2291 2506 2166 2614 
Q 2041 2722 1694 2722 
Q 1459 2722 1328 2630 
Q 1197 2538 1116 2306 
z
M 2291 1594 
Q 2122 1538 1756 1459 
Q 1391 1381 1278 1306 
Q 1106 1184 1106 997 
Q 1106 813 1243 678 
Q 1381 544 1594 544 
Q 1831 544 2047 700 
Q 2206 819 2256 991 
Q 2291 1103 2291 1419 
L 2291 1594 
z
" transform="scale(0.015625)"/>
      <path id="Arial-BoldMT-74" d="M 1981 3319 
L 1981 2619 
L 1381 2619 
L 1381 1281 
Q 1381 875 1398 808 
Q 1416 741 1477 697 
Q 1538 653 1625 653 
Q 1747 653 1978 738 
L 2053 56 
Q 1747 -75 1359 -75 
Q 1122 -75 931 4 
Q 741 84 652 211 
Q 563 338 528 553 
Q 500 706 500 1172 
L 500 2619 
L 97 2619 
L 97 3319 
L 500 3319 
L 500 3978 
L 1381 4491 
L 1381 3319 
L 1981 3319 
z
" transform="scale(0.015625)"/>
      <path id="Arial-BoldMT-20" transform="scale(0.015625)"/>
      <path id="Arial-BoldMT-43" d="M 3397 1684 
L 4294 1400 
Q 4088 650 3608 286 
Q 3128 -78 2391 -78 
Q 1478 -78 890 545 
Q 303 1169 303 2250 
Q 303 3394 893 4026 
Q 1484 4659 2447 4659 
Q 3288 4659 3813 4163 
Q 4125 3869 4281 3319 
L 3366 3100 
Q 3284 3456 3026 3662 
Q 2769 3869 2400 3869 
Q 1891 3869 1573 3503 
Q 1256 3138 1256 2319 
Q 1256 1450 1568 1081 
Q 1881 713 2381 713 
Q 2750 713 3015 947 
Q 3281 1181 3397 1684 
z
" transform="scale(0.015625)"/>
      <path id="Arial-BoldMT-6f" d="M 256 1706 
Q 256 2144 472 2553 
Q 688 2963 1083 3178 
Q 1478 3394 1966 3394 
Q 2719 3394 3200 2905 
Q 3681 2416 3681 1669 
Q 3681 916 3195 420 
Q 2709 -75 1972 -75 
Q 1516 -75 1102 131 
Q 688 338 472 736 
Q 256 1134 256 1706 
z
M 1156 1659 
Q 1156 1166 1390 903 
Q 1625 641 1969 641 
Q 2313 641 2545 903 
Q 2778 1166 2778 1666 
Q 2778 2153 2545 2415 
Q 2313 2678 1969 2678 
Q 1625 2678 1390 2415 
Q 1156 2153 1156 1659 
z
" transform="scale(0.015625)"/>
      <path id="Arial-BoldMT-64" d="M 3503 0 
L 2688 0 
L 2688 488 
Q 2484 203 2207 64 
Q 1931 -75 1650 -75 
Q 1078 -75 670 386 
Q 263 847 263 1672 
Q 263 2516 659 2955 
Q 1056 3394 1663 3394 
Q 2219 3394 2625 2931 
L 2625 4581 
L 3503 4581 
L 3503 0 
z
M 1159 1731 
Q 1159 1200 1306 963 
Q 1519 619 1900 619 
Q 2203 619 2415 876 
Q 2628 1134 2628 1647 
Q 2628 2219 2422 2470 
Q 2216 2722 1894 2722 
Q 1581 2722 1370 2473 
Q 1159 2225 1159 1731 
z
" transform="scale(0.015625)"/>
      <path id="Arial-BoldMT-65" d="M 2381 1056 
L 3256 909 
Q 3088 428 2723 176 
Q 2359 -75 1813 -75 
Q 947 -75 531 491 
Q 203 944 203 1634 
Q 203 2459 634 2926 
Q 1066 3394 1725 3394 
Q 2466 3394 2894 2905 
Q 3322 2416 3303 1406 
L 1103 1406 
Q 1113 1016 1316 798 
Q 1519 581 1822 581 
Q 2028 581 2168 693 
Q 2309 806 2381 1056 
z
M 2431 1944 
Q 2422 2325 2234 2523 
Q 2047 2722 1778 2722 
Q 1491 2722 1303 2513 
Q 1116 2303 1119 1944 
L 2431 1944 
z
" transform="scale(0.015625)"/>
      <path id="Arial-BoldMT-73" d="M 150 947 
L 1031 1081 
Q 1088 825 1259 692 
Q 1431 559 1741 559 
Q 2081 559 2253 684 
Q 2369 772 2369 919 
Q 2369 1019 2306 1084 
Q 2241 1147 2013 1200 
Q 950 1434 666 1628 
Q 272 1897 272 2375 
Q 272 2806 612 3100 
Q 953 3394 1669 3394 
Q 2350 3394 2681 3172 
Q 3013 2950 3138 2516 
L 2309 2363 
Q 2256 2556 2107 2659 
Q 1959 2763 1684 2763 
Q 1338 2763 1188 2666 
Q 1088 2597 1088 2488 
Q 1088 2394 1175 2328 
Q 1294 2241 1995 2081 
Q 2697 1922 2975 1691 
Q 3250 1456 3250 1038 
Q 3250 581 2869 253 
Q 2488 -75 1741 -75 
Q 1063 -75 667 200 
Q 272 475 150 947 
z
" transform="scale(0.015625)"/>
      <path id="Arial-BoldMT-41" d="M 4597 0 
L 3591 0 
L 3191 1041 
L 1359 1041 
L 981 0 
L 0 0 
L 1784 4581 
L 2763 4581 
L 4597 0 
z
M 2894 1813 
L 2263 3513 
L 1644 1813 
L 2894 1813 
z
" transform="scale(0.015625)"/>
      <path id="Arial-BoldMT-63" d="M 3353 2338 
L 2488 2181 
Q 2444 2441 2289 2572 
Q 2134 2703 1888 2703 
Q 1559 2703 1364 2476 
Q 1169 2250 1169 1719 
Q 1169 1128 1367 884 
Q 1566 641 1900 641 
Q 2150 641 2309 783 
Q 2469 925 2534 1272 
L 3397 1125 
Q 3263 531 2881 228 
Q 2500 -75 1859 -75 
Q 1131 -75 698 384 
Q 266 844 266 1656 
Q 266 2478 700 2936 
Q 1134 3394 1875 3394 
Q 2481 3394 2839 3133 
Q 3197 2872 3353 2338 
z
" transform="scale(0.015625)"/>
      <path id="Arial-BoldMT-72" d="M 1300 0 
L 422 0 
L 422 3319 
L 1238 3319 
L 1238 2847 
Q 1447 3181 1614 3287 
Q 1781 3394 1994 3394 
Q 2294 3394 2572 3228 
L 2300 2463 
Q 2078 2606 1888 2606 
Q 1703 2606 1575 2504 
Q 1447 2403 1373 2137 
Q 1300 1872 1300 1025 
L 1300 0 
z
" transform="scale(0.015625)"/>
      <path id="Arial-BoldMT-53" d="M 231 1491 
L 1131 1578 
Q 1213 1125 1461 912 
Q 1709 700 2131 700 
Q 2578 700 2804 889 
Q 3031 1078 3031 1331 
Q 3031 1494 2936 1608 
Q 2841 1722 2603 1806 
Q 2441 1863 1863 2006 
Q 1119 2191 819 2459 
Q 397 2838 397 3381 
Q 397 3731 595 4036 
Q 794 4341 1167 4500 
Q 1541 4659 2069 4659 
Q 2931 4659 3367 4281 
Q 3803 3903 3825 3272 
L 2900 3231 
Q 2841 3584 2645 3739 
Q 2450 3894 2059 3894 
Q 1656 3894 1428 3728 
Q 1281 3622 1281 3444 
Q 1281 3281 1419 3166 
Q 1594 3019 2269 2859 
Q 2944 2700 3267 2529 
Q 3591 2359 3773 2064 
Q 3956 1769 3956 1334 
Q 3956 941 3737 597 
Q 3519 253 3119 86 
Q 2719 -81 2122 -81 
Q 1253 -81 787 320 
Q 322 722 231 1491 
z
" transform="scale(0.015625)"/>
      <path id="Arial-BoldMT-68" d="M 1334 4581 
L 1334 2897 
Q 1759 3394 2350 3394 
Q 2653 3394 2897 3281 
Q 3141 3169 3264 2994 
Q 3388 2819 3433 2606 
Q 3478 2394 3478 1947 
L 3478 0 
L 2600 0 
L 2600 1753 
Q 2600 2275 2550 2415 
Q 2500 2556 2373 2639 
Q 2247 2722 2056 2722 
Q 1838 2722 1666 2615 
Q 1494 2509 1414 2295 
Q 1334 2081 1334 1663 
L 1334 0 
L 456 0 
L 456 4581 
L 1334 4581 
z
" transform="scale(0.015625)"/>
     </defs>
     <use xlink:href="#Arial-BoldMT-4d"/>
     <use xlink:href="#Arial-BoldMT-75" transform="translate(83.300781 0)"/>
     <use xlink:href="#Arial-BoldMT-71" transform="translate(144.384766 0)"/>
     <use xlink:href="#Arial-BoldMT-61" transform="translate(205.46875 0)"/>
     <use xlink:href="#Arial-BoldMT-74" transform="translate(261.083984 0)"/>
     <use xlink:href="#Arial-BoldMT-74" transform="translate(294.384766 0)"/>
     <use xlink:href="#Arial-BoldMT-61" transform="translate(327.685547 0)"/>
     <use xlink:href="#Arial-BoldMT-61" transform="translate(383.300781 0)"/>
     <use xlink:href="#Arial-BoldMT-74" transform="translate(438.916016 0)"/>
     <use xlink:href="#Arial-BoldMT-20" transform="translate(472.216797 0)"/>
     <use xlink:href="#Arial-BoldMT-43" transform="translate(500 0)"/>
     <use xlink:href="#Arial-BoldMT-6f" transform="translate(572.216797 0)"/>
     <use xlink:href="#Arial-BoldMT-64" transform="translate(633.300781 0)"/>
     <use xlink:href="#Arial-BoldMT-65" transform="translate(694.384766 0)"/>
     <use xlink:href="#Arial-BoldMT-73" transform="translate(750 0)"/>
     <use xlink:href="#Arial-BoldMT-20" transform="translate(805.615234 0)"/>
     <use xlink:href="#Arial-BoldMT-41" transform="translate(829.648438 0)"/>
     <use xlink:href="#Arial-BoldMT-63" transform="translate(901.865234 0)"/>
     <use xlink:href="#Arial-BoldMT-72" transform="translate(957.480469 0)"/>
     <use xlink:href="#Arial-BoldMT-6f" transform="translate(996.396484 0)"/>
     <use xlink:href="#Arial-BoldMT-73" transform="translate(1057.480469 0)"/>
     <use xlink:href="#Arial-BoldMT-73" transform="translate(1113.095703 0)"/>
     <use xlink:href="#Arial-BoldMT-20" transform="translate(1168.710938 0)"/>
     <use xlink:href="#Arial-BoldMT-31" transform="translate(1196.494141 0)"/>
     <use xlink:href="#Arial-BoldMT-31" transform="translate(1246.609375 0)"/>
     <use xlink:href="#Arial-BoldMT-34" transform="translate(1302.224609 0)"/>
     <use xlink:href="#Arial-BoldMT-20" transform="translate(1357.839844 0)"/>
     <use xlink:href="#Arial-BoldMT-53" transform="translate(1385.623047 0)"/>
     <use xlink:href="#Arial-BoldMT-75" transform="translate(1452.322266 0)"/>
     <use xlink:href="#Arial-BoldMT-72" transform="translate(1513.40625 0)"/>
     <use xlink:href="#Arial-BoldMT-61" transform="translate(1552.322266 0)"/>
     <use xlink:href="#Arial-BoldMT-68" transform="translate(1607.9375 0)"/>
     <use xlink:href="#Arial-BoldMT-73" transform="translate(1669.021484 0)"/>
    </g>
    <!-- (colored = has code, gray = no code) -->
    <g style="fill: #262626" transform="translate(376.493594 32.38425) scale(0.14 -0.14)">
     <defs>
      <path id="Arial-BoldMT-28" d="M 1916 -1347 
L 1313 -1347 
Q 834 -625 584 153 
Q 334 931 334 1659 
Q 334 2563 644 3369 
Q 913 4069 1325 4659 
L 1925 4659 
Q 1497 3713 1336 3048 
Q 1175 2384 1175 1641 
Q 1175 1128 1270 590 
Q 1366 53 1531 -431 
Q 1641 -750 1916 -1347 
z
" transform="scale(0.015625)"/>
      <path id="Arial-BoldMT-6c" d="M 459 0 
L 459 4581 
L 1338 4581 
L 1338 0 
L 459 0 
z
" transform="scale(0.015625)"/>
      <path id="Arial-BoldMT-3d" d="M 266 2550 
L 266 3356 
L 3469 3356 
L 3469 2550 
L 266 2550 
z
M 266 1163 
L 266 1972 
L 3469 1972 
L 3469 1163 
L 266 1163 
z
" transform="scale(0.015625)"/>
      <path id="Arial-BoldMT-2c" d="M 438 878 
L 1316 878 
L 1316 250 
Q 1316 -131 1250 -351 
Q 1184 -572 1001 -747 
Q 819 -922 538 -1022 
L 366 -659 
Q 631 -572 743 -419 
Q 856 -266 863 0 
L 438 0 
L 438 878 
z
" transform="scale(0.015625)"/>
      <path id="Arial-BoldMT-67" d="M 378 -219 
L 1381 -341 
Q 1406 -516 1497 -581 
Q 1622 -675 1891 -675 
Q 2234 -675 2406 -572 
Q 2522 -503 2581 -350 
Q 2622 -241 2622 53 
L 2622 538 
Q 2228 0 1628 0 
Q 959 0 569 566 
Q 263 1013 263 1678 
Q 263 2513 664 2953 
Q 1066 3394 1663 3394 
Q 2278 3394 2678 2853 
L 2678 3319 
L 3500 3319 
L 3500 341 
Q 3500 -247 3403 -537 
Q 3306 -828 3131 -993 
Q 2956 -1159 2664 -1253 
Q 2372 -1347 1925 -1347 
Q 1081 -1347 728 -1058 
Q 375 -769 375 -325 
Q 375 -281 378 -219 
z
M 1163 1728 
Q 1163 1200 1367 954 
Q 1572 709 1872 709 
Q 2194 709 2416 961 
Q 2638 1213 2638 1706 
Q 2638 2222 2425 2472 
Q 2213 2722 1888 2722 
Q 1572 2722 1367 2476 
Q 1163 2231 1163 1728 
z
" transform="scale(0.015625)"/>
      <path id="Arial-BoldMT-79" d="M 44 3319 
L 978 3319 
L 1772 963 
L 2547 3319 
L 3456 3319 
L 2284 125 
L 2075 -453 
Q 1959 -744 1854 -897 
Q 1750 -1050 1614 -1145 
Q 1478 -1241 1279 -1294 
Q 1081 -1347 831 -1347 
Q 578 -1347 334 -1294 
L 256 -606 
Q 463 -647 628 -647 
Q 934 -647 1081 -467 
Q 1228 -288 1306 -9 
L 44 3319 
z
" transform="scale(0.015625)"/>
      <path id="Arial-BoldMT-6e" d="M 3478 0 
L 2600 0 
L 2600 1694 
Q 2600 2231 2544 2389 
Q 2488 2547 2361 2634 
Q 2234 2722 2056 2722 
Q 1828 2722 1647 2597 
Q 1466 2472 1398 2265 
Q 1331 2059 1331 1503 
L 1331 0 
L 453 0 
L 453 3319 
L 1269 3319 
L 1269 2831 
Q 1703 3394 2363 3394 
Q 2653 3394 2893 3289 
Q 3134 3184 3257 3021 
Q 3381 2859 3429 2653 
Q 3478 2447 3478 2063 
L 3478 0 
z
" transform="scale(0.015625)"/>
      <path id="Arial-BoldMT-29" d="M 216 -1347 
Q 475 -791 581 -494 
Q 688 -197 778 190 
Q 869 578 912 926 
Q 956 1275 956 1641 
Q 956 2384 797 3048 
Q 638 3713 209 4659 
L 806 4659 
Q 1278 3988 1539 3234 
Q 1800 2481 1800 1706 
Q 1800 1053 1594 306 
Q 1359 -531 822 -1347 
L 216 -1347 
z
" transform="scale(0.015625)"/>
     </defs>
     <use xlink:href="#Arial-BoldMT-28"/>
     <use xlink:href="#Arial-BoldMT-63" transform="translate(33.300781 0)"/>
     <use xlink:href="#Arial-BoldMT-6f" transform="translate(88.916016 0)"/>
     <use xlink:href="#Arial-BoldMT-6c" transform="translate(150 0)"/>
     <use xlink:href="#Arial-BoldMT-6f" transform="translate(177.783203 0)"/>
     <use xlink:href="#Arial-BoldMT-72" transform="translate(238.867188 0)"/>
     <use xlink:href="#Arial-BoldMT-65" transform="translate(277.783203 0)"/>
     <use xlink:href="#Arial-BoldMT-64" transform="translate(333.398438 0)"/>
     <use xlink:href="#Arial-BoldMT-20" transform="translate(394.482422 0)"/>
     <use xlink:href="#Arial-BoldMT-3d" transform="translate(422.265625 0)"/>
     <use xlink:href="#Arial-BoldMT-20" transform="translate(480.664062 0)"/>
     <use xlink:href="#Arial-BoldMT-68" transform="translate(508.447266 0)"/>
     <use xlink:href="#Arial-BoldMT-61" transform="translate(569.53125 0)"/>
     <use xlink:href="#Arial-BoldMT-73" transform="translate(625.146484 0)"/>
     <use xlink:href="#Arial-BoldMT-20" transform="translate(680.761719 0)"/>
     <use xlink:href="#Arial-BoldMT-63" transform="translate(708.544922 0)"/>
     <use xlink:href="#Arial-BoldMT-6f" transform="translate(764.160156 0)"/>
     <use xlink:href="#Arial-BoldMT-64" transform="translate(825.244141 0)"/>
     <use xlink:href="#Arial-BoldMT-65" transform="translate(886.328125 0)"/>
     <use xlink:href="#Arial-BoldMT-2c" transform="translate(941.943359 0)"/>
     <use xlink:href="#Arial-BoldMT-20" transform="translate(969.726562 0)"/>
     <use xlink:href="#Arial-BoldMT-67" transform="translate(997.509766 0)"/>
     <use xlink:href="#Arial-BoldMT-72" transform="translate(1058.59375 0)"/>
     <use xlink:href="#Arial-BoldMT-61" transform="translate(1097.509766 0)"/>
     <use xlink:href="#Arial-BoldMT-79" transform="translate(1153.125 0)"/>
     <use xlink:href="#Arial-BoldMT-20" transform="translate(1208.740234 0)"/>
     <use xlink:href="#Arial-BoldMT-3d" transform="translate(1236.523438 0)"/>
     <use xlink:href="#Arial-BoldMT-20" transform="translate(1294.921875 0)"/>
     <use xlink:href="#Arial-BoldMT-6e" transform="translate(1322.705078 0)"/>
     <use xlink:href="#Arial-BoldMT-6f" transform="translate(1383.789062 0)"/>
     <use xlink:href="#Arial-BoldMT-20" transform="translate(1444.873047 0)"/>
     <use xlink:href="#Arial-BoldMT-63" transform="translate(1472.65625 0)"/>
     <use xlink:href="#Arial-BoldMT-6f" transform="translate(1528.271484 0)"/>
     <use xlink:href="#Arial-BoldMT-64" transform="translate(1589.355469 0)"/>
     <use xlink:href="#Arial-BoldMT-65" transform="translate(1650.439453 0)"/>
     <use xlink:href="#Arial-BoldMT-29" transform="translate(1706.054688 0)"/>
    </g>
   </g>
   <g id="legend_1">
    <g id="patch_116">
     <path d="M 697.363594 62.315031 
L 982.98 62.315031 
Q 984.78 62.315031 984.78 60.515031 
L 984.78 48.68425 
Q 984.78 46.88425 982.98 46.88425 
L 697.363594 46.88425 
Q 695.563594 46.88425 695.563594 48.68425 
L 695.563594 60.515031 
Q 695.563594 62.315031 697.363594 62.315031 
z
" style="fill: #ffffff; opacity: 0.8; stroke: #cccccc; stroke-linejoin: miter"/>
    </g>
    <g id="patch_117">
     <path d="M 699.163594 56.926281 
L 717.163594 56.926281 
L 717.163594 50.626281 
L 699.163594 50.626281 
z
" style="fill: #3b82f6; stroke: #3b82f6; stroke-linejoin: miter"/>
    </g>
    <g id="text_116">
     <!-- ALM -->
     <g style="fill: #262626" transform="translate(724.363594 56.926281) scale(0.09 -0.09)">
      <defs>
       <path id="ArialMT-41" d="M -9 0 
L 1750 4581 
L 2403 4581 
L 4278 0 
L 3588 0 
L 3053 1388 
L 1138 1388 
L 634 0 
L -9 0 
z
M 1313 1881 
L 2866 1881 
L 2388 3150 
Q 2169 3728 2063 4100 
Q 1975 3659 1816 3225 
L 1313 1881 
z
" transform="scale(0.015625)"/>
       <path id="ArialMT-4c" d="M 469 0 
L 469 4581 
L 1075 4581 
L 1075 541 
L 3331 541 
L 3331 0 
L 469 0 
z
" transform="scale(0.015625)"/>
       <path id="ArialMT-4d" d="M 475 0 
L 475 4581 
L 1388 4581 
L 2472 1338 
Q 2622 884 2691 659 
Q 2769 909 2934 1394 
L 4031 4581 
L 4847 4581 
L 4847 0 
L 4263 0 
L 4263 3834 
L 2931 0 
L 2384 0 
L 1059 3900 
L 1059 0 
L 475 0 
z
" transform="scale(0.015625)"/>
      </defs>
      <use xlink:href="#ArialMT-41"/>
      <use xlink:href="#ArialMT-4c" transform="translate(66.699219 0)"/>
      <use xlink:href="#ArialMT-4d" transform="translate(122.314453 0)"/>
     </g>
    </g>
    <g id="patch_118">
     <path d="M 760.868437 56.926281 
L 778.868437 56.926281 
L 778.868437 50.626281 
L 760.868437 50.626281 
z
" style="fill: #22c55e; stroke: #22c55e; stroke-linejoin: miter"/>
    </g>
    <g id="text_117">
     <!-- ALR -->
     <g style="fill: #262626" transform="translate(786.068437 56.926281) scale(0.09 -0.09)">
      <defs>
       <path id="ArialMT-52" d="M 503 0 
L 503 4581 
L 2534 4581 
Q 3147 4581 3465 4457 
Q 3784 4334 3975 4021 
Q 4166 3709 4166 3331 
Q 4166 2844 3850 2509 
Q 3534 2175 2875 2084 
Q 3116 1969 3241 1856 
Q 3506 1613 3744 1247 
L 4541 0 
L 3778 0 
L 3172 953 
Q 2906 1366 2734 1584 
Q 2563 1803 2427 1890 
Q 2291 1978 2150 2013 
Q 2047 2034 1813 2034 
L 1109 2034 
L 1109 0 
L 503 0 
z
M 1109 2559 
L 2413 2559 
Q 2828 2559 3062 2645 
Q 3297 2731 3419 2920 
Q 3541 3109 3541 3331 
Q 3541 3656 3305 3865 
Q 3069 4075 2559 4075 
L 1109 4075 
L 1109 2559 
z
" transform="scale(0.015625)"/>
      </defs>
      <use xlink:href="#ArialMT-41"/>
      <use xlink:href="#ArialMT-4c" transform="translate(66.699219 0)"/>
      <use xlink:href="#ArialMT-52" transform="translate(122.314453 0)"/>
     </g>
    </g>
    <g id="patch_119">
     <path d="M 821.57625 56.926281 
L 839.57625 56.926281 
L 839.57625 50.626281 
L 821.57625 50.626281 
z
" style="fill: #f97316; stroke: #f97316; stroke-linejoin: miter"/>
    </g>
    <g id="text_118">
     <!-- TS -->
     <g style="fill: #262626" transform="translate(846.77625 56.926281) scale(0.09 -0.09)">
      <defs>
       <path id="ArialMT-54" d="M 1659 0 
L 1659 4041 
L 150 4041 
L 150 4581 
L 3781 4581 
L 3781 4041 
L 2266 4041 
L 2266 0 
L 1659 0 
z
" transform="scale(0.015625)"/>
       <path id="ArialMT-53" d="M 288 1472 
L 859 1522 
Q 900 1178 1048 958 
Q 1197 738 1509 602 
Q 1822 466 2213 466 
Q 2559 466 2825 569 
Q 3091 672 3220 851 
Q 3350 1031 3350 1244 
Q 3350 1459 3225 1620 
Q 3100 1781 2813 1891 
Q 2628 1963 1997 2114 
Q 1366 2266 1113 2400 
Q 784 2572 623 2826 
Q 463 3081 463 3397 
Q 463 3744 659 4045 
Q 856 4347 1234 4503 
Q 1613 4659 2075 4659 
Q 2584 4659 2973 4495 
Q 3363 4331 3572 4012 
Q 3781 3694 3797 3291 
L 3216 3247 
Q 3169 3681 2898 3903 
Q 2628 4125 2100 4125 
Q 1550 4125 1298 3923 
Q 1047 3722 1047 3438 
Q 1047 3191 1225 3031 
Q 1400 2872 2139 2705 
Q 2878 2538 3153 2413 
Q 3553 2228 3743 1945 
Q 3934 1663 3934 1294 
Q 3934 928 3725 604 
Q 3516 281 3123 101 
Q 2731 -78 2241 -78 
Q 1619 -78 1198 103 
Q 778 284 539 648 
Q 300 1013 288 1472 
z
" transform="scale(0.015625)"/>
      </defs>
      <use xlink:href="#ArialMT-54"/>
      <use xlink:href="#ArialMT-53" transform="translate(61.083984 0)"/>
     </g>
    </g>
    <g id="patch_120">
     <path d="M 876.276562 56.926281 
L 894.276562 56.926281 
L 894.276562 50.626281 
L 876.276562 50.626281 
z
" style="fill: #ef4444; stroke: #ef4444; stroke-linejoin: miter"/>
    </g>
    <g id="text_119">
     <!-- HM -->
     <g style="fill: #262626" transform="translate(901.476562 56.926281) scale(0.09 -0.09)">
      <defs>
       <path id="ArialMT-48" d="M 513 0 
L 513 4581 
L 1119 4581 
L 1119 2700 
L 3500 2700 
L 3500 4581 
L 4106 4581 
L 4106 0 
L 3500 0 
L 3500 2159 
L 1119 2159 
L 1119 0 
L 513 0 
z
" transform="scale(0.015625)"/>
      </defs>
      <use xlink:href="#ArialMT-48"/>
      <use xlink:href="#ArialMT-4d" transform="translate(72.216797 0)"/>
     </g>
    </g>
    <g id="patch_121">
     <path d="M 933.472969 56.926281 
L 951.472969 56.926281 
L 951.472969 50.626281 
L 933.472969 50.626281 
z
" style="fill: #a855f7; stroke: #a855f7; stroke-linejoin: miter"/>
    </g>
    <g id="text_120">
     <!-- Other -->
     <g style="fill: #262626" transform="translate(958.672969 56.926281) scale(0.09 -0.09)">
      <defs>
       <path id="ArialMT-4f" d="M 309 2231 
Q 309 3372 921 4017 
Q 1534 4663 2503 4663 
Q 3138 4663 3647 4359 
Q 4156 4056 4423 3514 
Q 4691 2972 4691 2284 
Q 4691 1588 4409 1038 
Q 4128 488 3612 205 
Q 3097 -78 2500 -78 
Q 1853 -78 1343 234 
Q 834 547 571 1087 
Q 309 1628 309 2231 
z
M 934 2222 
Q 934 1394 1379 917 
Q 1825 441 2497 441 
Q 3181 441 3623 922 
Q 4066 1403 4066 2288 
Q 4066 2847 3877 3264 
Q 3688 3681 3323 3911 
Q 2959 4141 2506 4141 
Q 1863 4141 1398 3698 
Q 934 3256 934 2222 
z
" transform="scale(0.015625)"/>
       <path id="ArialMT-74" d="M 1650 503 
L 1731 6 
Q 1494 -44 1306 -44 
Q 1000 -44 831 53 
Q 663 150 594 308 
Q 525 466 525 972 
L 525 2881 
L 113 2881 
L 113 3319 
L 525 3319 
L 525 4141 
L 1084 4478 
L 1084 3319 
L 1650 3319 
L 1650 2881 
L 1084 2881 
L 1084 941 
Q 1084 700 1114 631 
Q 1144 563 1211 522 
Q 1278 481 1403 481 
Q 1497 481 1650 503 
z
" transform="scale(0.015625)"/>
       <path id="ArialMT-68" d="M 422 0 
L 422 4581 
L 984 4581 
L 984 2938 
Q 1378 3394 1978 3394 
Q 2347 3394 2619 3248 
Q 2891 3103 3008 2847 
Q 3125 2591 3125 2103 
L 3125 0 
L 2563 0 
L 2563 2103 
Q 2563 2525 2380 2717 
Q 2197 2909 1863 2909 
Q 1613 2909 1392 2779 
Q 1172 2650 1078 2428 
Q 984 2206 984 1816 
L 984 0 
L 422 0 
z
" transform="scale(0.015625)"/>
       <path id="ArialMT-65" d="M 2694 1069 
L 3275 997 
Q 3138 488 2766 206 
Q 2394 -75 1816 -75 
Q 1088 -75 661 373 
Q 234 822 234 1631 
Q 234 2469 665 2931 
Q 1097 3394 1784 3394 
Q 2450 3394 2872 2941 
Q 3294 2488 3294 1666 
Q 3294 1616 3291 1516 
L 816 1516 
Q 847 969 1125 678 
Q 1403 388 1819 388 
Q 2128 388 2347 550 
Q 2566 713 2694 1069 
z
M 847 1978 
L 2700 1978 
Q 2663 2397 2488 2606 
Q 2219 2931 1791 2931 
Q 1403 2931 1139 2672 
Q 875 2413 847 1978 
z
" transform="scale(0.015625)"/>
       <path id="ArialMT-72" d="M 416 0 
L 416 3319 
L 922 3319 
L 922 2816 
Q 1116 3169 1280 3281 
Q 1444 3394 1641 3394 
Q 1925 3394 2219 3213 
L 2025 2691 
Q 1819 2813 1613 2813 
Q 1428 2813 1281 2702 
Q 1134 2591 1072 2394 
Q 978 2094 978 1738 
L 978 0 
L 416 0 
z
" transform="scale(0.015625)"/>
      </defs>
      <use xlink:href="#ArialMT-4f"/>
      <use xlink:href="#ArialMT-74" transform="translate(77.783203 0)"/>
      <use xlink:href="#ArialMT-68" transform="translate(105.566406 0)"/>
      <use xlink:href="#ArialMT-65" transform="translate(161.181641 0)"/>
      <use xlink:href="#ArialMT-72" transform="translate(216.796875 0)"/>
     </g>
    </g>
   </g>
  </g>
 </g>
 <defs>
  <clipPath id="p8e46ca4811">
   <rect x="7.2" y="42.38425" width="982.08" height="100.726154"/>
  </clipPath>
 </defs>
</svg>
